<?xml version="1.0" encoding="UTF-8" standalone="no"?>
<svg
   viewBox="0 0 24 24"
   version="1.1"
   id="svg13395"
   sodipodi:docname="campaign.svg"
   inkscape:version="1.2.2 (b0a84865, 2022-12-01)"
   xmlns:inkscape="http://www.inkscape.org/namespaces/inkscape"
   xmlns:sodipodi="http://sodipodi.sourceforge.net/DTD/sodipodi-0.dtd"
   xmlns="http://www.w3.org/2000/svg"
   xmlns:svg="http://www.w3.org/2000/svg">
  <sodipodi:namedview
     id="namedview13397"
     pagecolor="#505050"
     bordercolor="#eeeeee"
     borderopacity="1"
     inkscape:showpageshadow="0"
     inkscape:pageopacity="0"
     inkscape:pagecheckerboard="0"
     inkscape:deskcolor="#505050"
     showgrid="false"
     inkscape:zoom="9.8333333"
     inkscape:cx="8.3389831"
     inkscape:cy="12"
     inkscape:window-width="1440"
     inkscape:window-height="872"
     inkscape:window-x="0"
     inkscape:window-y="28"
     inkscape:window-maximized="0"
     inkscape:current-layer="svg13395" />
  <defs
     id="defs13381">
    <linearGradient
       id="a"
       x1="10.5"
       y1="14.42"
       x2="13.5"
       y2="19.62"
       gradientUnits="userSpaceOnUse">
      <stop
         offset="0"
         stop-color="#b6b7b7"
         id="stop13376" />
      <stop
         offset="1"
         stop-color="#e0e0df"
         id="stop13378" />
    </linearGradient>
  </defs>
  <g
     id="g13885"
     transform="matrix(1.3445317,0,0,1.3445317,-4.2664912,-5.1214444)">
    <polyline
       points="16.35 14.73 17.78 14.19 16.85 12.33 18.09 10.6 16.33 9.55 16.82 7 14.86 6.87 14.16 4.21 13.08 6.16 11.22 4.76 11.27 7.52 9.46 7.13 10.33 9.72 9.16 10.73 10.41 12.35"
       style="fill:none;stroke:#dc3545;stroke-width:0.31652px;stroke-miterlimit:10"
       id="polyline13383" />
    <path
       d="M 11.33,14.35 6,17 12.67,19.66 18,17 Z m -1.33,2 1.33,-0.67 3.34,1.32 -1.34,0.66 z"
       style="fill:url(#a);stroke:#b6b7b7;stroke-width:0.1px;stroke-miterlimit:10"
       id="path13385" />
    <path
       d="m 11.45,13.6 3,1.21 a 0.16,0.16 0 0 0 0.22,-0.13 l 0.63,-5 A 0.17,0.17 0 0 0 15.19,9.51 l -3,-1.21 a 0.17,0.17 0 0 0 -0.23,0.14 l -0.62,5 a 0.16,0.16 0 0 0 0.11,0.16 z"
       style="fill:#dc3545"
       id="path13387" />
    <line
       x1="6"
       y1="17.02"
       x2="6"
       y2="19.02"
       style="fill:none;stroke:#b6b7b7;stroke-width:0.166667px;stroke-miterlimit:10"
       id="line13389" />
    <line
       x1="12.67"
       y1="19.68"
       x2="12.67"
       y2="21.68"
       style="fill:none;stroke:#b6b7b7;stroke-width:0.166667px;stroke-miterlimit:10"
       id="line13391" />
    <line
       x1="18"
       y1="17.02"
       x2="18"
       y2="19.02"
       style="fill:none;stroke:#b6b7b7;stroke-width:0.166667px;stroke-miterlimit:10"
       id="line13393" />
  </g>
</svg>
