<?xml version="1.0" encoding="UTF-8" standalone="no"?>
<!-- Generator: Adobe Illustrator 25.0.0, SVG Export Plug-In . SVG Version: 6.00 Build 0)  -->

<svg
   version="1.1"
   id="Calque_1"
   x="0px"
   y="0px"
   viewBox="0 0 576 576"
   xml:space="preserve"
   width="576"
   height="576"
   sodipodi:docname="roommate.svg"
   inkscape:version="1.2.2 (b0a84865, 2022-12-01)"
   xmlns:inkscape="http://www.inkscape.org/namespaces/inkscape"
   xmlns:sodipodi="http://sodipodi.sourceforge.net/DTD/sodipodi-0.dtd"
   xmlns="http://www.w3.org/2000/svg"
   xmlns:svg="http://www.w3.org/2000/svg"><sodipodi:namedview
   id="namedview15182"
   pagecolor="#505050"
   bordercolor="#eeeeee"
   borderopacity="1"
   inkscape:showpageshadow="0"
   inkscape:pageopacity="0"
   inkscape:pagecheckerboard="0"
   inkscape:deskcolor="#505050"
   showgrid="false"
   inkscape:zoom="0.40972222"
   inkscape:cx="200.13559"
   inkscape:cy="288"
   inkscape:window-width="1440"
   inkscape:window-height="872"
   inkscape:window-x="0"
   inkscape:window-y="28"
   inkscape:window-maximized="0"
   inkscape:current-layer="Calque_1" /><defs
   id="defs13966" />
<style
   type="text/css"
   id="style13952">
	.st0{fill:url(#SVGID_1_);}
	.st1{fill:#DC3545;}
</style>
<linearGradient
   id="SVGID_1_"
   gradientUnits="userSpaceOnUse"
   x1="4"
   y1="9"
   x2="20"
   y2="9"
   gradientTransform="matrix(1,0,0,-1,0,26)">
	<stop
   offset="0"
   style="stop-color:#B6B7B7"
   id="stop13954" />
	<stop
   offset="1"
   style="stop-color:#E0E0DF"
   id="stop13956" />
</linearGradient>

<g
   id="g14450"
   transform="matrix(36,0,0,36,-144,-144)"><ellipse
     class="st0"
     cx="12"
     cy="17"
     rx="8"
     ry="2"
     id="ellipse13959"
     style="fill:url(#SVGID_1_)" /><path
     class="st1"
     d="M 12,5 C 9.8,5 8,6.8 8,9 c 0,1.8 2.6,5.8 3.6,7.4 0.1,0.2 0.5,0.3 0.7,0.1 0.1,0 0.1,-0.1 0.1,-0.1 C 13.4,14.8 16,10.8 16,9 16,6.8 14.2,5 12,5 Z m 0,5 c -0.6,0 -1,-0.4 -1,-1 0,-0.6 0.4,-1 1,-1 0.6,0 1,0.4 1,1 0,0.6 -0.4,1 -1,1 z"
     id="path13961" /></g>
</svg>
