<?xml version="1.0" encoding="utf-8"?>
<!-- Generator: Adobe Illustrator 25.0.0, SVG Export Plug-In . SVG Version: 6.00 Build 0)  -->
<svg version="1.1" id="Calque_1" xmlns="http://www.w3.org/2000/svg" xmlns:xlink="http://www.w3.org/1999/xlink" x="0px" y="0px"
	 viewBox="0 0 24 24" style="enable-background:new 0 0 24 24;" xml:space="preserve">
<style type="text/css">
	.st0{fill:#DC3545;}
	.st1{fill:url(#SVGID_1_);}
	.st2{fill:url(#SVGID_2_);}
	.st3{fill:url(#SVGID_3_);}
</style>
<path class="st0" d="M20.5,10c0,1.1-0.9,2-2,2s-2-0.9-2-2s0.9-2,2-2S20.5,8.9,20.5,10"/>
<linearGradient id="SVGID_1_" gradientUnits="userSpaceOnUse" x1="15" y1="12" x2="22" y2="12" gradientTransform="matrix(1 0 0 -1 0 26)">
	<stop  offset="0" style="stop-color:#B6B7B7"/>
	<stop  offset="1" style="stop-color:#E0E0DF"/>
</linearGradient>
<path class="st1" d="M22,16c0.1-2.1-1.4-3.9-3.5-4c-2.1,0.1-3.6,1.9-3.5,4H22z"/>
<path class="st0" d="M7.5,10.1c0,1.1-0.9,2-2,2s-2-0.9-2-2s0.9-2,2-2S7.5,9,7.5,10.1"/>
<linearGradient id="SVGID_2_" gradientUnits="userSpaceOnUse" x1="2.01" y1="11.87" x2="9" y2="11.87" gradientTransform="matrix(1 0 0 -1 0 26)">
	<stop  offset="0" style="stop-color:#B6B7B7"/>
	<stop  offset="1" style="stop-color:#E0E0DF"/>
</linearGradient>
<path class="st2" d="M9,16.1c0.1-2.1-1.4-3.9-3.5-4c-2.1,0.1-3.6,1.9-3.5,4H9z"/>
<path class="st0" d="M15.4,8.6c0,1.9-1.5,3.4-3.4,3.4s-3.4-1.5-3.4-3.4c0-1.9,1.5-3.4,3.4-3.4C13.9,5.1,15.4,6.7,15.4,8.6"/>
<linearGradient id="SVGID_3_" gradientUnits="userSpaceOnUse" x1="6" y1="10.57" x2="18" y2="10.57" gradientTransform="matrix(1 0 0 -1 0 26)">
	<stop  offset="0" style="stop-color:#B6B7B7"/>
	<stop  offset="1" style="stop-color:#E0E0DF"/>
</linearGradient>
<path class="st3" d="M18,18.9c0-3.8-2.7-6.9-6-6.9s-6,3.1-6,6.9H18z"/>
</svg>
