<?xml version="1.0" encoding="utf-8"?>
<!-- Generator: Adobe Illustrator 24.2.3, SVG Export Plug-In . SVG Version: 6.00 Build 0)  -->
<svg version="1.1" xmlns="http://www.w3.org/2000/svg" xmlns:xlink="http://www.w3.org/1999/xlink" x="0px" y="0px"
	 viewBox="0 0 24 24" style="enable-background:new 0 0 24 24;" xml:space="preserve">
<style type="text/css">
	.st0{clip-path:url(#SVGID_2_);}
	.st1{fill:none;stroke:#000000;stroke-width:0.25;stroke-miterlimit:10;}
	.st2{opacity:0.4;}
	.st3{clip-path:url(#SVGID_3_);fill:none;stroke:#000000;stroke-width:0.25;stroke-miterlimit:10;}
	.st4{clip-path:url(#SVGID_3_);}
	.st5{display:none;}
	.st6{fill:#E0E0DF;}
	.st7{fill:#DC3545;}
	.st8{fill:#FFC107;}
	.st9{fill:#0D6EFD;}
	.st10{fill:#B6B7B7;}
	.st11{fill:url(#SVGID_1_);}
	.st12{fill:#FFFFFF;}
	.st13{fill:url(#SVGID_4_);}
	.st14{fill:url(#SVGID_5_);}
	.st15{fill:none;stroke:#B6B7B7;stroke-width:0.25;stroke-miterlimit:10;}
	.st16{fill:url(#SVGID_6_);stroke:#B6B7B7;stroke-width:0.25;stroke-miterlimit:10;}
	.st17{fill:none;stroke:#DC3545;stroke-width:0.355;stroke-miterlimit:10;}
	.st18{fill:none;stroke:#DC3545;stroke-width:0.3165;stroke-miterlimit:10;}
	.st19{fill:url(#SVGID_7_);stroke:#B6B7B7;stroke-width:0.1;stroke-miterlimit:10;}
	.st20{fill:none;stroke:#B6B7B7;stroke-width:0.1667;stroke-miterlimit:10;}
	.st21{fill:url(#SVGID_8_);}
	.st22{fill:#FEC111;}
	.st23{fill:url(#SVGID_9_);}
	.st24{filter:url(#Adobe_OpacityMaskFilter);}
	.st25{enable-background:new    ;}
	.st26{mask:url(#SVGID_10_);}
	.st27{clip-path:url(#SVGID_12_);fill:#DC3545;}
	.st28{fill:url(#SVGID_13_);}
	.st29{fill:url(#SVGID_14_);}
	.st30{fill:url(#SVGID_15_);}
	.st31{fill:url(#SVGID_16_);}
	.st32{fill:url(#SVGID_17_);}
	.st33{fill:url(#SVGID_18_);}
	.st34{fill:url(#SVGID_19_);}
	.st35{fill:url(#SVGID_20_);}
	.st36{fill:url(#SVGID_21_);}
	.st37{fill:url(#SVGID_22_);}
	.st38{fill:none;stroke:url(#SVGID_23_);stroke-width:0.5;stroke-miterlimit:10;}
	.st39{fill:url(#SVGID_24_);}
	.st40{fill:none;stroke:url(#SVGID_25_);stroke-width:0.5;stroke-miterlimit:10;}
	.st41{fill:none;stroke:url(#SVGID_26_);stroke-width:0.5;stroke-miterlimit:10;}
	.st42{fill:none;stroke:url(#SVGID_27_);stroke-width:0.5;stroke-miterlimit:10;}
	.st43{fill:url(#SVGID_28_);}
	.st44{fill:url(#SVGID_29_);}
	.st45{fill:url(#SVGID_30_);}
	.st46{fill:none;stroke:url(#SVGID_31_);stroke-width:0.75;stroke-miterlimit:10;}
	.st47{fill:none;stroke:url(#SVGID_32_);stroke-width:0.9115;stroke-miterlimit:10;}
	.st48{fill:url(#SVGID_33_);}
	.st49{fill:url(#SVGID_34_);}
	.st50{fill:url(#SVGID_35_);}
	.st51{fill:none;stroke:#DC3545;stroke-width:0.25;stroke-miterlimit:10;}
	.st52{fill:none;stroke:url(#SVGID_36_);stroke-width:0.75;stroke-miterlimit:10;}
	.st53{fill:none;stroke:url(#SVGID_37_);stroke-width:0.75;stroke-miterlimit:10;}
	.st54{fill:none;stroke:#DC3545;stroke-width:0.75;stroke-miterlimit:10;}
	.st55{fill:none;stroke:#DC3545;stroke-width:0.6188;stroke-miterlimit:10;}
	.st56{fill:url(#SVGID_38_);}
	.st57{fill:url(#SVGID_39_);}
	.st58{fill:url(#SVGID_40_);}
	.st59{fill:url(#SVGID_41_);}
	.st60{fill:url(#SVGID_42_);}
	.st61{fill:url(#SVGID_43_);}
	.st62{fill:url(#SVGID_44_);}
</style>
<symbol  id="material_x5F_system_x5F_icon_x5F_grid" viewBox="0 -48 48 48">
	<g>
		<defs>
			<rect id="SVGID_1_" x="0" y="-48" width="48" height="48"/>
		</defs>
		<clipPath id="SVGID_2_">
			<use xlink:href="#SVGID_1_"  style="overflow:visible;"/>
		</clipPath>
		<g class="st0">
			<g>
				<line class="st1" x1="2" y1="-48" x2="2" y2="0"/>
				<line class="st1" x1="4" y1="-48" x2="4" y2="0"/>
				<line class="st1" x1="6" y1="-48" x2="6" y2="0"/>
				<line class="st1" x1="8" y1="-48" x2="8" y2="0"/>
				<line class="st1" x1="10" y1="-48" x2="10" y2="0"/>
				<line class="st1" x1="12" y1="-48" x2="12" y2="0"/>
				<line class="st1" x1="14" y1="-48" x2="14" y2="0"/>
				<line class="st1" x1="16" y1="-48" x2="16" y2="0"/>
				<line class="st1" x1="18" y1="-48" x2="18" y2="0"/>
				<line class="st1" x1="20" y1="-48" x2="20" y2="0"/>
				<line class="st1" x1="22" y1="-48" x2="22" y2="0"/>
				<line class="st1" x1="24" y1="-48" x2="24" y2="0"/>
				<line class="st1" x1="26" y1="-48" x2="26" y2="0"/>
				<line class="st1" x1="28" y1="-48" x2="28" y2="0"/>
				<line class="st1" x1="30" y1="-48" x2="30" y2="0"/>
				<line class="st1" x1="32" y1="-48" x2="32" y2="0"/>
				<line class="st1" x1="34" y1="-48" x2="34" y2="0"/>
				<line class="st1" x1="36" y1="-48" x2="36" y2="0"/>
				<line class="st1" x1="38" y1="-48" x2="38" y2="0"/>
				<line class="st1" x1="40" y1="-48" x2="40" y2="0"/>
				<line class="st1" x1="42" y1="-48" x2="42" y2="0"/>
				<line class="st1" x1="44" y1="-48" x2="44" y2="0"/>
				<line class="st1" x1="46" y1="-48" x2="46" y2="0"/>
			</g>
			<g>
				<line class="st1" x1="0" y1="-2" x2="48" y2="-2"/>
				<line class="st1" x1="0" y1="-4" x2="48" y2="-4"/>
				<line class="st1" x1="0" y1="-6" x2="48" y2="-6"/>
				<line class="st1" x1="0" y1="-8" x2="48" y2="-8"/>
				<line class="st1" x1="0" y1="-10" x2="48" y2="-10"/>
				<line class="st1" x1="0" y1="-12" x2="48" y2="-12"/>
				<line class="st1" x1="0" y1="-14" x2="48" y2="-14"/>
				<line class="st1" x1="0" y1="-16" x2="48" y2="-16"/>
				<line class="st1" x1="0" y1="-18" x2="48" y2="-18"/>
				<line class="st1" x1="0" y1="-20" x2="48" y2="-20"/>
				<line class="st1" x1="0" y1="-22" x2="48" y2="-22"/>
				<line class="st1" x1="0" y1="-24" x2="48" y2="-24"/>
				<line class="st1" x1="0" y1="-26" x2="48" y2="-26"/>
				<line class="st1" x1="0" y1="-28" x2="48" y2="-28"/>
				<line class="st1" x1="0" y1="-30" x2="48" y2="-30"/>
				<line class="st1" x1="0" y1="-32" x2="48" y2="-32"/>
				<line class="st1" x1="0" y1="-34" x2="48" y2="-34"/>
				<line class="st1" x1="0" y1="-36" x2="48" y2="-36"/>
				<line class="st1" x1="0" y1="-38" x2="48" y2="-38"/>
				<line class="st1" x1="0" y1="-40" x2="48" y2="-40"/>
				<line class="st1" x1="0" y1="-42" x2="48" y2="-42"/>
				<line class="st1" x1="0" y1="-44" x2="48" y2="-44"/>
				<line class="st1" x1="0" y1="-46" x2="48" y2="-46"/>
			</g>
			<g>
				<path d="M47.75-0.25v-47.5H0.25v47.5H47.75 M48,0H0v-48h48V0L48,0z"/>
			</g>
		</g>
	</g>
</symbol>
<symbol  id="material_x5F_system_x5F_icon_x5F_keylines" viewBox="0 -48 48 48">
	<g class="st2">
		<defs>
			<rect id="SVGID_3_" x="0" y="-48" class="st2" width="48" height="48"/>
		</defs>
		<clipPath id="SVGID_4_">
			<use xlink:href="#SVGID_3_"  style="overflow:visible;"/>
		</clipPath>
		
			<line style="clip-path:url(#SVGID_4_);fill:none;stroke:#000000;stroke-width:0.25;stroke-miterlimit:10;" x1="24" y1="0" x2="24" y2="-48"/>
		
			<line style="clip-path:url(#SVGID_4_);fill:none;stroke:#000000;stroke-width:0.25;stroke-miterlimit:10;" x1="48" y1="-24" x2="0" y2="-24"/>
		
			<line style="clip-path:url(#SVGID_4_);fill:none;stroke:#000000;stroke-width:0.25;stroke-miterlimit:10;" x1="48" y1="-16" x2="0" y2="-16"/>
		
			<line style="clip-path:url(#SVGID_4_);fill:none;stroke:#000000;stroke-width:0.25;stroke-miterlimit:10;" x1="48" y1="-32" x2="0" y2="-32"/>
		
			<line style="clip-path:url(#SVGID_4_);fill:none;stroke:#000000;stroke-width:0.25;stroke-miterlimit:10;" x1="32" y1="-48" x2="32" y2="0"/>
		
			<line style="clip-path:url(#SVGID_4_);fill:none;stroke:#000000;stroke-width:0.25;stroke-miterlimit:10;" x1="16" y1="-48" x2="16" y2="0"/>
		
			<line style="clip-path:url(#SVGID_4_);fill:none;stroke:#000000;stroke-width:0.25;stroke-miterlimit:10;" x1="47.75" y1="-0.25" x2="0.25" y2="-47.75"/>
		
			<line style="clip-path:url(#SVGID_4_);fill:none;stroke:#000000;stroke-width:0.25;stroke-miterlimit:10;" x1="0.25" y1="-0.25" x2="47.75" y2="-47.75"/>
		<path style="clip-path:url(#SVGID_4_);fill:none;stroke:#000000;stroke-width:0.25;stroke-miterlimit:10;" d="M24-14
			c-5.52,0-10-4.48-10-10c0-5.52,4.48-10,10-10c5.52,0,10,4.48,10,10C34-18.48,29.52-14,24-14z"/>
		<path style="clip-path:url(#SVGID_4_);fill:none;stroke:#000000;stroke-width:0.25;stroke-miterlimit:10;" d="M24-4
			C12.95-4,4-12.95,4-24c0-11.05,8.95-20,20-20c11.05,0,20,8.95,20,20C44-12.95,35.05-4,24-4z"/>
		<path style="clip-path:url(#SVGID_4_);fill:none;stroke:#000000;stroke-width:0.25;stroke-miterlimit:10;" d="M38-6H10
			c-2.21,0-4-1.79-4-4v-28c0-2.21,1.79-4,4-4h28c2.21,0,4,1.79,4,4v28C42-7.79,40.21-6,38-6z"/>
		<path style="clip-path:url(#SVGID_4_);fill:none;stroke:#000000;stroke-width:0.25;stroke-miterlimit:10;" d="M40-8H8
			c-2.21,0-4-1.79-4-4v-24c0-2.21,1.79-4,4-4h32c2.21,0,4,1.79,4,4l0,24C44-9.79,42.21-8,40-8z"/>
		<path style="clip-path:url(#SVGID_4_);fill:none;stroke:#000000;stroke-width:0.25;stroke-miterlimit:10;" d="M40-40v32
			c0,2.21-1.79,4-4,4H12C9.79-4,8-5.79,8-8v-32c0-2.21,1.79-4,4-4h24C38.21-44,40-42.21,40-40z"/>
		<g style="clip-path:url(#SVGID_4_);">
			<path d="M47.75-0.25v-47.5H0.25v47.5H47.75 M48,0H0v-48h48V0L48,0z"/>
		</g>
	</g>
</symbol>
<g id="Grille" class="st5">
	
		<use xlink:href="#material_x5F_system_x5F_icon_x5F_grid"  width="48" height="48" id="XMLID_67_" x="0" y="-48" transform="matrix(0.5 0 0 -0.5 -6.602491e-05 -6.091152e-05)" style="display:inline;overflow:visible;opacity:0.15;"/>
</g>
<g id="Lignes_guide" class="st5">
	
		<use xlink:href="#material_x5F_system_x5F_icon_x5F_keylines"  width="48" height="48" id="XMLID_2_" x="0" y="-48" transform="matrix(0.5 0 0 -0.5 -6.602491e-05 -6.091152e-05)" style="display:inline;overflow:visible;"/>
</g>
<g id="Refs">
</g>
<g id="Colocs">
</g>
<g id="Annonces">
</g>
<g id="Evenements">
</g>
<g id="Campagnes">
</g>
<g id="Administration">
</g>
<g id="Recherche">
</g>
<g id="Menu">
</g>
<g id="Coeur">
</g>
<g id="Notifications">
</g>
<g id="Profil">
</g>
<g id="Clubs_et_assos">
</g>
<g id="Parrainages">
</g>
<g id="Cours">
</g>
<g id="Annuiaire_des_étudiants">
</g>
<g id="Générateur_de_signature">
</g>
<g id="Pret_et_location_de_matériel">
</g>
<g id="Questionnaires">
</g>
<g id="Logiciels_et_sites">
</g>
<g id="Catalogue_BD">
</g>
<g id="Favoris">
</g>
<g id="Supprimer">
</g>
<g id="Paramètres">
</g>
<g id="Home">
	<linearGradient id="SVGID_5_" gradientUnits="userSpaceOnUse" x1="5.9998" y1="15.9998" x2="17.9998" y2="15.9998">
		<stop  offset="0" style="stop-color:#B6B7B7"/>
		<stop  offset="1" style="stop-color:#E0E0DF"/>
	</linearGradient>
	<path class="st14" d="M6,12v6.01C6,19.11,6.89,20,7.99,20H10v-5.21c0-0.46,0.37-0.83,0.83-0.83h2.34c0.46,0,0.83,0.37,0.83,0.83V20
		h2.01c1.1,0,1.99-0.89,1.99-1.99V12H6z"/>
	<path class="st7" d="M19.99,10.59L17,8.04V5.38C17,5.17,16.83,5,16.62,5h-1.25C15.17,5,15,5.17,15,5.38v0.96l-2.48-2.11
		c-0.3-0.26-0.75-0.26-1.05,0l-4.3,3.66l-3.16,2.7C3.45,11.07,3.79,12,4.53,12H12h7.47C20.21,12,20.55,11.07,19.99,10.59z"/>
</g>
</svg>
