<svg xmlns="http://www.w3.org/2000/svg" xmlns:xlink="http://www.w3.org/1999/xlink" viewBox="0 0 24 24"><defs><linearGradient id="a" x1="8.29" y1="16.44" x2="13.09" y2="8.11" gradientUnits="userSpaceOnUse"><stop offset="0" stop-color="#b6b7b7"/><stop offset="1" stop-color="#e0e0df"/></linearGradient></defs><path d="M6,18H17c2,0,4.24-10,2-10-3,0-2,7-4,7-2.24,0-6,1-9,1S2,18,6,18Z" style="fill:#dc3545"/><path d="M15.5,15c0-1.88.13-4.1-1-5.7S10.86,7.28,9,7.59a4.49,4.49,0,0,0-3.12,7c1.86,2.54,7.28,2.81,7.81-1,.42-3-3.86-6-5.94-3.06a2.48,2.48,0,0,0,1.17,3.74c1.64.61,3.1-.41,2-2.06-.34-.55-1.21,0-.86.5.5.8-.48.87-1.07.52a1.46,1.46,0,0,1-.45-2.14c1-1.37,3.27-.44,3.88.85,1.65,3.48-3.54,4.42-5.5,2.37A3.48,3.48,0,0,1,9.06,8.58c1.72-.31,4,0,4.85,1.73.73,1.39.59,3.17.59,4.69a.5.5,0,0,0,1,0Z" style="fill:url(#a)"/><path d="M18,10.5c0-1.13.05-2.77.85-3.65.44-.47-.27-1.18-.7-.7C17.14,7.25,17,9.07,17,10.5a.5.5,0,0,0,1,0Z" style="fill:#fec111"/><path d="M20,9.5a4,4,0,0,1,.85-2.65c.44-.47-.26-1.18-.7-.7A5,5,0,0,0,19,9.5a.5.5,0,0,0,1,0Z" style="fill:#fec111"/></svg>