<?xml version="1.0" encoding="utf-8"?>
<!-- Generator: Adobe Illustrator 25.0.0, SVG Export Plug-In . SVG Version: 6.00 Build 0)  -->
<svg version="1.1" id="Calque_1" xmlns="http://www.w3.org/2000/svg" xmlns:xlink="http://www.w3.org/1999/xlink" x="0px" y="0px"
	 viewBox="0 0 24 24" style="enable-background:new 0 0 24 24;" xml:space="preserve">
<style type="text/css">
	.eventst0{fill:#FFFFFF;stroke:#B6B7B7;stroke-width:0.25;stroke-miterlimit:10;}
	.eventst1{fill:url(#SVGID_1_);stroke:#B6B7B7;stroke-width:0.25;stroke-miterlimit:10;}
	.eventst2{fill:#DC3545;}
</style>
<path class="eventst0" d="M20,8.4v9.8c0,1-0.8,1.8-1.8,1.8h0H5.8c-1,0-1.8-0.8-1.8-1.8l0,0V8.4"/>
<linearGradient id="SVGID_1_" gradientUnits="userSpaceOnUse" x1="4" y1="19.78" x2="20" y2="19.78" gradientTransform="matrix(1 0 0 -1 0 26)">
	<stop  offset="0" style="stop-color:#B6B7B7"/>
	<stop  offset="1" style="stop-color:#E0E0DF"/>
</linearGradient>
<path class="eventst1" d="M4,8.4V5.8C4,4.8,4.8,4,5.8,4h12.4c1,0,1.8,0.8,1.8,1.8c0,0,0,0,0,0v2.6"/>
<circle class="eventst2" cx="12" cy="17" r="1"/>
<path class="eventst2" d="M11.3,14.6l-1-3.6c-0.1-0.4,0.1-0.8,0.5-0.9c0.1,0,0.1,0,0.2,0h2c0.4,0,0.7,0.3,0.7,0.7c0,0.1,0,0.1,0,0.2
	l-1,3.6c-0.1,0.4-0.5,0.6-0.9,0.5C11.6,15,11.4,14.8,11.3,14.6z"/>
</svg>
