<?xml version="1.0" encoding="UTF-8" standalone="no"?>
<svg
   viewBox="0 0 24 24"
   version="1.1"
   id="svg19046"
   sodipodi:docname="library.svg"
   inkscape:version="1.2.2 (b0a84865, 2022-12-01)"
   xmlns:inkscape="http://www.inkscape.org/namespaces/inkscape"
   xmlns:sodipodi="http://sodipodi.sourceforge.net/DTD/sodipodi-0.dtd"
   xmlns:xlink="http://www.w3.org/1999/xlink"
   xmlns="http://www.w3.org/2000/svg"
   xmlns:svg="http://www.w3.org/2000/svg">
  <sodipodi:namedview
     id="namedview19048"
     pagecolor="#505050"
     bordercolor="#eeeeee"
     borderopacity="1"
     inkscape:showpageshadow="0"
     inkscape:pageopacity="0"
     inkscape:pagecheckerboard="0"
     inkscape:deskcolor="#505050"
     showgrid="false"
     inkscape:zoom="9.8333333"
     inkscape:cx="8.3389831"
     inkscape:cy="12"
     inkscape:window-width="1440"
     inkscape:window-height="872"
     inkscape:window-x="0"
     inkscape:window-y="28"
     inkscape:window-maximized="0"
     inkscape:current-layer="svg19046" />
  <defs
     id="defs19026">
    <linearGradient
       id="a"
       x1="6.5"
       y1="8.96"
       x2="10.5"
       y2="8.96"
       gradientUnits="userSpaceOnUse">
      <stop
         offset="0"
         stop-color="#b6b7b7"
         id="stop19016" />
      <stop
         offset="1"
         stop-color="#e0e0df"
         id="stop19018" />
    </linearGradient>
    <linearGradient
       id="b"
       x1="6.5"
       y1="12"
       x2="10.5"
       y2="12"
       xlink:href="#a" />
    <linearGradient
       id="c"
       x1="6.5"
       y1="15"
       x2="8.57"
       y2="15"
       xlink:href="#a" />
    <linearGradient
       id="d"
       x1="13.5"
       y1="8.96"
       x2="16"
       y2="8.96"
       xlink:href="#a" />
    <linearGradient
       id="e"
       x1="13.5"
       y1="11.97"
       x2="14.75"
       y2="11.97"
       xlink:href="#a" />
    <linearGradient
       id="f"
       x1="13.55"
       y1="15"
       x2="16.8"
       y2="15"
       xlink:href="#a" />
    <linearGradient
       inkscape:collect="always"
       xlink:href="#a"
       id="linearGradient19541"
       gradientUnits="userSpaceOnUse"
       x1="6.5"
       y1="8.96"
       x2="10.5"
       y2="8.96" />
  </defs>
  <g
     id="g19539"
     transform="matrix(1.6417198,0,0,1.6417198,-7.7006376,-7.8652961)">
    <path
       d="M 12,18 C 12,17.45 10.43,17 8.5,17 6.57,17 5,17.45 5,18 V 7.48 c 0,-0.55 1.57,-1 3.5,-1 1.93,0 3.5,0.45 3.5,1"
       style="fill:none;stroke:#dc3545;stroke-width:0.618816px;stroke-miterlimit:10"
       id="path19028" />
    <path
       d="m 12,18 c 0,-0.55 1.57,-1 3.5,-1 1.93,0 3.5,0.45 3.5,1 V 7.52 c 0,-0.56 -1.57,-1 -3.5,-1 -1.93,0 -3.5,0.48 -3.5,1"
       style="fill:none;stroke:#dc3545;stroke-width:0.618816px;stroke-miterlimit:10"
       id="path19030" />
    <line
       x1="12"
       y1="18.030001"
       x2="12"
       y2="7.48"
       style="fill:none;stroke:#dc3545;stroke-width:0.618816px;stroke-miterlimit:10"
       id="line19032" />
    <path
       d="m 6.5,9.34 h 4 a 0.38,0.38 0 0 0 0,-0.75 h -4 a 0.38,0.38 0 0 0 0,0.75 z"
       style="fill:url(#linearGradient19541)"
       id="path19034" />
    <path
       d="m 6.5,12.37 h 4 a 0.38,0.38 0 0 0 0,-0.75 h -4 a 0.38,0.38 0 0 0 0,0.75 z"
       style="fill:url(#b)"
       id="path19036" />
    <path
       d="m 6.5,15.37 h 2.07 a 0.38,0.38 0 0 0 0,-0.75 H 6.5 a 0.38,0.38 0 0 0 0,0.75 z"
       style="fill:url(#c)"
       id="path19038" />
    <path
       d="M 13.5,9.34 H 16 a 0.38,0.38 0 0 0 0,-0.75 h -2.5 a 0.38,0.38 0 0 0 0,0.75 z"
       style="fill:url(#d)"
       id="path19040" />
    <path
       d="m 13.5,12.34 h 1.25 a 0.38,0.38 0 0 0 0,-0.75 H 13.5 a 0.38,0.38 0 0 0 0,0.75 z"
       style="fill:url(#e)"
       id="path19042" />
    <path
       d="m 13.55,15.37 h 3.25 a 0.38,0.38 0 0 0 0,-0.75 h -3.25 a 0.38,0.38 0 0 0 0,0.75 z"
       style="fill:url(#f)"
       id="path19044" />
  </g>
</svg>
