<svg xmlns="http://www.w3.org/2000/svg" xmlns:xlink="http://www.w3.org/1999/xlink" viewBox="0 0 24 24"><defs><linearGradient id="a" x1="5" y1="16.04" x2="19" y2="16.04" gradientUnits="userSpaceOnUse"><stop offset="0" stop-color="#b6b7b7"/><stop offset="1" stop-color="#e0e0df"/></linearGradient><linearGradient id="b" x1="5" y1="10.48" x2="19" y2="10.48" xlink:href="#a"/></defs><path d="M15,16.92a3,3,0,0,1-6,0c0-1.66,1.34-2,3-2s3,.34,3,2" style="fill:#dc3545"/><ellipse cx="12" cy="16.04" rx="7" ry="1.37" style="fill:url(#a)"/><path d="M16,9a4,4,0,0,0-3.06-3.88,1,1,0,0,0-1.88,0A4,4,0,0,0,8,9c0,5-3,6-3,7,0,.61,14,.7,14,0C19,15,16,14,16,9Z" style="fill:url(#b)"/></svg>