<?xml version="1.0" encoding="UTF-8" standalone="no"?>
<!-- Generator: Adobe Illustrator 25.0.0, SVG Export Plug-In . SVG Version: 6.00 Build 0)  -->

<svg
   version="1.1"
   id="Calque_1"
   x="0px"
   y="0px"
   viewBox="0 0 24 24"
   style="enable-background:new 0 0 24 24;"
   xml:space="preserve"
   sodipodi:docname="notification-new.svg"
   inkscape:version="1.2.2 (b0a84865, 2022-12-01)"
   xmlns:inkscape="http://www.inkscape.org/namespaces/inkscape"
   xmlns:sodipodi="http://sodipodi.sourceforge.net/DTD/sodipodi-0.dtd"
   xmlns="http://www.w3.org/2000/svg"
   xmlns:svg="http://www.w3.org/2000/svg"><defs
   id="defs516" /><sodipodi:namedview
   id="namedview514"
   pagecolor="#505050"
   bordercolor="#eeeeee"
   borderopacity="1"
   inkscape:showpageshadow="0"
   inkscape:pageopacity="0"
   inkscape:pagecheckerboard="0"
   inkscape:deskcolor="#505050"
   showgrid="false"
   inkscape:zoom="9.8333333"
   inkscape:cx="9.8644068"
   inkscape:cy="12"
   inkscape:window-width="1440"
   inkscape:window-height="872"
   inkscape:window-x="0"
   inkscape:window-y="28"
   inkscape:window-maximized="0"
   inkscape:current-layer="Calque_1" />
<style
   type="text/css"
   id="style487">
	.notifst0{fill:#DC3545;}
	.notifst1{fill:url(#SVGID_1_);}
	.notifst2{fill:url(#SVGID_2_);}
	.notifst3{fill:none;stroke:#DC3545;stroke-width:0.75;stroke-miterlimit:10;}
	.notifst4{fill:none;stroke:#DC3545;stroke-width:0.75;stroke-linejoin:bevel;stroke-dasharray:5.0155;}
</style>

<linearGradient
   id="SVGID_1_"
   gradientUnits="userSpaceOnUse"
   x1="5"
   y1="9.96"
   x2="19"
   y2="9.96"
   gradientTransform="matrix(1,0,0,-1,0,26)">
	<stop
   offset="0"
   style="stop-color:#B6B7B7"
   id="stop491" />
	<stop
   offset="1"
   style="stop-color:#E0E0DF"
   id="stop493" />
</linearGradient>

<linearGradient
   id="SVGID_2_"
   gradientUnits="userSpaceOnUse"
   x1="5"
   y1="15.5236"
   x2="19"
   y2="15.5236"
   gradientTransform="matrix(1,0,0,-1,0,26)">
	<stop
   offset="0"
   style="stop-color:#B6B7B7"
   id="stop498" />
	<stop
   offset="1"
   style="stop-color:#E0E0DF"
   id="stop500" />
</linearGradient>

<g
   id="g642"
   transform="matrix(1.4733656,0,0,1.4733656,-5.6803872,-5.0357897)"><path
     class="notifst0"
     d="m 16.7,16.7 c 0,1.7 -1.3,3 -3,3 -1.7,0 -3,-1.3 -3,-3 0,-1.7 1.3,-2 3,-2 1.7,0 3,0.4 3,2"
     id="path489" /><ellipse
     class="notifst1"
     cx="12"
     cy="16"
     rx="7"
     ry="1.4"
     id="ellipse496"
     style="fill:url(#SVGID_1_)" /><path
     class="notifst2"
     d="M 16,9 C 16,7.2 14.7,5.6 12.9,5.1 12.7,4.6 12.1,4.3 11.6,4.5 11.3,4.6 11.1,4.8 11,5.1 9.3,5.6 8,7.2 8,9 c 0,5 -3,6 -3,7 0,0.6 14,0.7 14,0 0,-1 -3,-2 -3,-7 z"
     id="path503"
     style="fill:url(#SVGID_2_)" /><g
     id="g511">
	<path
   class="notifst3"
   d="M 5.9,7.4 C 5.9,6 7.8,3.8 9,3.8"
   id="path505" />
	<g
   id="g509">
		<path
   class="notifst4"
   d="M 18.1,7.4 C 18.1,6 16.2,3.8 15,3.8"
   id="path507" />
	</g>
</g></g>
</svg>
