<?xml version="1.0" encoding="UTF-8" standalone="no"?>
<svg
   viewBox="0 0 24 24"
   version="1.1"
   id="svg753"
   sodipodi:docname="notification.svg"
   inkscape:version="1.2.2 (b0a84865, 2022-12-01)"
   xmlns:inkscape="http://www.inkscape.org/namespaces/inkscape"
   xmlns:sodipodi="http://sodipodi.sourceforge.net/DTD/sodipodi-0.dtd"
   xmlns:xlink="http://www.w3.org/1999/xlink"
   xmlns="http://www.w3.org/2000/svg"
   xmlns:svg="http://www.w3.org/2000/svg">
  <sodipodi:namedview
     id="namedview755"
     pagecolor="#505050"
     bordercolor="#eeeeee"
     borderopacity="1"
     inkscape:showpageshadow="0"
     inkscape:pageopacity="0"
     inkscape:pagecheckerboard="0"
     inkscape:deskcolor="#505050"
     showgrid="false"
     inkscape:zoom="9.8333333"
     inkscape:cx="9.8644068"
     inkscape:cy="12"
     inkscape:window-width="1440"
     inkscape:window-height="872"
     inkscape:window-x="0"
     inkscape:window-y="28"
     inkscape:window-maximized="0"
     inkscape:current-layer="svg753" />
  <defs
     id="defs745">
    <linearGradient
       id="a"
       x1="5"
       y1="16.04"
       x2="19"
       y2="16.04"
       gradientUnits="userSpaceOnUse">
      <stop
         offset="0"
         stop-color="#b6b7b7"
         id="stop739" />
      <stop
         offset="1"
         stop-color="#e0e0df"
         id="stop741" />
    </linearGradient>
    <linearGradient
       id="b"
       x1="5"
       y1="10.48"
       x2="19"
       y2="10.48"
       xlink:href="#a" />
    <linearGradient
       inkscape:collect="always"
       xlink:href="#a"
       id="linearGradient879"
       gradientUnits="userSpaceOnUse"
       x1="5"
       y1="16.04"
       x2="19"
       y2="16.04" />
  </defs>
  <g
     id="g877"
     transform="matrix(1.5525111,0,0,1.5525111,-6.6301332,-6.926022)">
    <path
       d="m 15,16.92 a 3,3 0 0 1 -6,0 c 0,-1.66 1.34,-2 3,-2 1.66,0 3,0.34 3,2"
       style="fill:#dc3545"
       id="path747" />
    <ellipse
       cx="12"
       cy="16.040001"
       rx="7"
       ry="1.37"
       style="fill:url(#linearGradient879)"
       id="ellipse749" />
    <path
       d="M 16,9 A 4,4 0 0 0 12.94,5.12 1,1 0 0 0 11.06,5.12 4,4 0 0 0 8,9 c 0,5 -3,6 -3,7 0,0.61 14,0.7 14,0 0,-1 -3,-2 -3,-7 z"
       style="fill:url(#b)"
       id="path751" />
  </g>
</svg>
