<?xml version="1.0" encoding="utf-8"?>
<!-- Generator: Adobe Illustrator 25.0.0, SVG Export Plug-In . SVG Version: 6.00 Build 0)  -->
<svg version="1.1" id="Calque_1" xmlns="http://www.w3.org/2000/svg" xmlns:xlink="http://www.w3.org/1999/xlink" x="0px" y="0px"
	 viewBox="0 0 24 24" style="enable-background:new 0 0 24 24;" xml:space="preserve">
<style type="text/css">
	.notifst0{fill:#DC3545;}
	.notifst1{fill:url(#SVGID_1_);}
	.notifst2{fill:url(#SVGID_2_);}
	.notifst3{fill:none;stroke:#DC3545;stroke-width:0.75;stroke-miterlimit:10;}
	.notifst4{fill:none;stroke:#DC3545;stroke-width:0.75;stroke-linejoin:bevel;stroke-dasharray:5.0155;}
</style>
<path class="notifst0" d="M16.7,16.7c0,1.7-1.3,3-3,3s-3-1.3-3-3c0-1.7,1.3-2,3-2S16.7,15.1,16.7,16.7"/>
<linearGradient id="SVGID_1_" gradientUnits="userSpaceOnUse" x1="5" y1="9.96" x2="19" y2="9.96" gradientTransform="matrix(1 0 0 -1 0 26)">
	<stop  offset="0" style="stop-color:#B6B7B7"/>
	<stop  offset="1" style="stop-color:#E0E0DF"/>
</linearGradient>
<ellipse class="notifst1" cx="12" cy="16" rx="7" ry="1.4"/>
<linearGradient id="SVGID_2_" gradientUnits="userSpaceOnUse" x1="5" y1="15.5236" x2="19" y2="15.5236" gradientTransform="matrix(1 0 0 -1 0 26)">
	<stop  offset="0" style="stop-color:#B6B7B7"/>
	<stop  offset="1" style="stop-color:#E0E0DF"/>
</linearGradient>
<path class="notifst2" d="M16,9c0-1.8-1.3-3.4-3.1-3.9c-0.2-0.5-0.8-0.8-1.3-0.6c-0.3,0.1-0.5,0.3-0.6,0.6C9.3,5.6,8,7.2,8,9c0,5-3,6-3,7
	c0,0.6,14,0.7,14,0C19,15,16,14,16,9z"/>
<g>
	<path class="notifst3" d="M5.9,7.4C5.9,6,7.8,3.8,9,3.8"/>
	<g>
		<path class="notifst4" d="M18.1,7.4c0-1.4-1.9-3.6-3.1-3.6"/>
	</g>
</g>
</svg>
