<?xml version="1.0" encoding="utf-8"?>
<!-- Generator: Adobe Illustrator 25.0.0, SVG Export Plug-In . SVG Version: 6.00 Build 0)  -->
<svg version="1.1" id="Calque_1" xmlns="http://www.w3.org/2000/svg" xmlns:xlink="http://www.w3.org/1999/xlink" x="0px" y="0px"
	 viewBox="0 0 24 24" style="enable-background:new 0 0 24 24;" xml:space="preserve">
<style type="text/css">
	.roomst0{fill:url(#SVGID_1_);}
	.roomst1{fill:#DC3545;}
</style>
<linearGradient id="SVGID_1_" gradientUnits="userSpaceOnUse" x1="4" y1="9" x2="20" y2="9" gradientTransform="matrix(1 0 0 -1 0 26)">
	<stop  offset="0" style="stop-color:#B6B7B7"/>
	<stop  offset="1" style="stop-color:#E0E0DF"/>
</linearGradient>
<ellipse class="roomst0" cx="12" cy="17" rx="8" ry="2"/>
<path class="roomst1" d="M12,5C9.8,5,8,6.8,8,9c0,1.8,2.6,5.8,3.6,7.4c0.1,0.2,0.5,0.3,0.7,0.1c0.1,0,0.1-0.1,0.1-0.1
	c1-1.6,3.6-5.6,3.6-7.4C16,6.8,14.2,5,12,5z M12,10c-0.6,0-1-0.4-1-1s0.4-1,1-1s1,0.4,1,1S12.6,10,12,10z"/>
</svg>
