<svg xmlns="http://www.w3.org/2000/svg" viewBox="0 0 24 24"><path d="M15,8.63H9A.38.38,0,0,0,8.62,9v8a.39.39,0,0,0,.38.38h6a.38.38,0,0,0,.37-.38V9a.38.38,0,0,0-.75,0v8l.38-.37H9l.37.37V9L9,9.38h6A.38.38,0,0,0,15,8.63Z" style="fill:#dc3545"/><path d="M8,8.38h8a.38.38,0,0,0,0-.75H8a.38.38,0,0,0,0,.75Z" style="fill:#dc3545"/><path d="M10.37,8V7L10,7.38h4L13.62,7V8a.38.38,0,0,0,.75,0V7A.38.38,0,0,0,14,6.62H10A.38.38,0,0,0,9.62,7V8a.38.38,0,0,0,.75,0Z" style="fill:#dc3545"/><path d="M11.37,15V11a.38.38,0,0,0-.75,0v4a.38.38,0,0,0,.75,0Z" style="fill:#dc3545"/><path d="M13.37,15V11a.38.38,0,0,0-.75,0v4a.38.38,0,0,0,.75,0Z" style="fill:#dc3545"/></svg>