<svg xmlns="http://www.w3.org/2000/svg" xmlns:xlink="http://www.w3.org/1999/xlink" viewBox="0 0 24 24"><defs><linearGradient id="a" x1="10.5" y1="14.42" x2="13.5" y2="19.62" gradientUnits="userSpaceOnUse"><stop offset="0" stop-color="#b6b7b7"/><stop offset="1" stop-color="#e0e0df"/></linearGradient></defs><polyline points="16.35 14.73 17.78 14.19 16.85 12.33 18.09 10.6 16.33 9.55 16.82 7 14.86 6.87 14.16 4.21 13.08 6.16 11.22 4.76 11.27 7.52 9.46 7.13 10.33 9.72 9.16 10.73 10.41 12.35" style="fill:none;stroke:#dc3545;stroke-miterlimit:10;stroke-width:0.316520141019194px"/><path d="M11.33,14.35,6,17l6.67,2.66L18,17Zm-1.33,2,1.33-.67L14.67,17l-1.34.66Z" style="stroke:#b6b7b7;stroke-miterlimit:10;stroke-width:0.100000006953875px;fill:url(#a)"/><path d="M11.45,13.6l3,1.21a.16.16,0,0,0,.22-.13l.63-5a.17.17,0,0,0-.11-.17l-3-1.21a.17.17,0,0,0-.23.14l-.62,5A.16.16,0,0,0,11.45,13.6Z" style="fill:#dc3545"/><line x1="6" y1="17.02" x2="6" y2="19.02" style="fill:none;stroke:#b6b7b7;stroke-miterlimit:10;stroke-width:0.16666667163372px"/><line x1="12.67" y1="19.68" x2="12.67" y2="21.68" style="fill:none;stroke:#b6b7b7;stroke-miterlimit:10;stroke-width:0.16666667163372px"/><line x1="18" y1="17.02" x2="18" y2="19.02" style="fill:none;stroke:#b6b7b7;stroke-miterlimit:10;stroke-width:0.16666667163372px"/></svg>