<svg xmlns="http://www.w3.org/2000/svg" xmlns:xlink="http://www.w3.org/1999/xlink" viewBox="0 0 24 24"><defs><linearGradient id="a" x1="8.52" y1="14.72" x2="20" y2="14.72" gradientUnits="userSpaceOnUse"><stop offset="0" stop-color="#b6b7b7"/><stop offset="1" stop-color="#e0e0df"/></linearGradient><linearGradient id="b" x1="4" y1="15.71" x2="12" y2="15.71" xlink:href="#a"/></defs><path d="M17.54,8.16a3.28,3.28,0,1,1-3.28-3.28,3.28,3.28,0,0,1,3.28,3.28" style="fill:#dc3545"/><path d="M20,18c0-3.62-2.57-6.56-5.74-6.56S8.52,14.38,8.52,18Z" style="fill:url(#a)"/><path d="M10.29,11.14A2.29,2.29,0,1,1,8,8.86a2.3,2.3,0,0,1,2.29,2.28" style="fill:#dc3545"/><path d="M12,18a4.32,4.32,0,0,0-4-4.57A4.32,4.32,0,0,0,4,18Z" style="fill:url(#b)"/></svg>