<svg xmlns="http://www.w3.org/2000/svg" xmlns:xlink="http://www.w3.org/1999/xlink" viewBox="0 0 24 24"><defs><linearGradient id="a" x1="6.55" y1="12.5" x2="17.46" y2="12.5" gradientUnits="userSpaceOnUse"><stop offset="0" stop-color="#b6b7b7"/><stop offset="1" stop-color="#e0e0df"/></linearGradient><linearGradient id="b" x1="9" y1="9" x2="13" y2="9" xlink:href="#a"/><linearGradient id="c" x1="9" y1="12" x2="11" y2="12" xlink:href="#a"/><linearGradient id="d" x1="9" y1="15" x2="12" y2="15" xlink:href="#a"/></defs><rect x="7" y="6" width="10" height="13" rx="1" style="fill:none;stroke-miterlimit:10;stroke-width:0.911541288395084px;stroke:url(#a)"/><path d="M9,9.38h4a.38.38,0,0,0,0-.75H9a.38.38,0,0,0,0,.75Z" style="fill:url(#b)"/><path d="M9,12.38h2a.38.38,0,0,0,0-.75H9a.38.38,0,0,0,0,.75Z" style="fill:url(#c)"/><path d="M9,15.37h3a.38.38,0,0,0,0-.75H9a.38.38,0,0,0,0,.75Z" style="fill:url(#d)"/><rect x="9" y="5" width="6" height="2" style="fill:#dc3545"/><path d="M14.26,9l.49.49s1-1,1-1" style="fill:none;stroke:#dc3545;stroke-miterlimit:10;stroke-width:0.25px"/><path d="M12.26,11.87l.49.5,1-1" style="fill:none;stroke:#dc3545;stroke-miterlimit:10;stroke-width:0.25px"/><path d="M13.28,15.49l1-1" style="fill:none;stroke:#dc3545;stroke-miterlimit:10;stroke-width:0.25px"/><path d="M14.27,15.49l-1-1" style="fill:none;stroke:#dc3545;stroke-miterlimit:10;stroke-width:0.25px"/></svg>