<svg xmlns="http://www.w3.org/2000/svg" xmlns:xlink="http://www.w3.org/1999/xlink" viewBox="0 0 24 24"><defs><linearGradient id="a" x1="6.5" y1="8.96" x2="10.5" y2="8.96" gradientUnits="userSpaceOnUse"><stop offset="0" stop-color="#b6b7b7"/><stop offset="1" stop-color="#e0e0df"/></linearGradient><linearGradient id="b" x1="6.5" y1="12" x2="10.5" y2="12" xlink:href="#a"/><linearGradient id="c" x1="6.5" y1="15" x2="8.57" y2="15" xlink:href="#a"/><linearGradient id="d" x1="13.5" y1="8.96" x2="16" y2="8.96" xlink:href="#a"/><linearGradient id="e" x1="13.5" y1="11.97" x2="14.75" y2="11.97" xlink:href="#a"/><linearGradient id="f" x1="13.55" y1="15" x2="16.8" y2="15" xlink:href="#a"/></defs><path d="M12,18c0-.55-1.57-1-3.5-1S5,17.45,5,18V7.48c0-.55,1.57-1,3.5-1s3.5.45,3.5,1" style="fill:none;stroke:#dc3545;stroke-miterlimit:10;stroke-width:0.618816220675215px"/><path d="M12,18c0-.55,1.57-1,3.5-1s3.5.45,3.5,1V7.52c0-.56-1.57-1-3.5-1S12,7,12,7.52" style="fill:none;stroke:#dc3545;stroke-miterlimit:10;stroke-width:0.618816220675215px"/><line x1="12" y1="18.03" x2="12" y2="7.48" style="fill:none;stroke:#dc3545;stroke-miterlimit:10;stroke-width:0.618816220675215px"/><path d="M6.5,9.34h4a.38.38,0,0,0,0-.75h-4a.38.38,0,0,0,0,.75Z" style="fill:url(#a)"/><path d="M6.5,12.37h4a.38.38,0,0,0,0-.75h-4a.38.38,0,0,0,0,.75Z" style="fill:url(#b)"/><path d="M6.5,15.37H8.57a.38.38,0,0,0,0-.75H6.5a.38.38,0,0,0,0,.75Z" style="fill:url(#c)"/><path d="M13.5,9.34H16a.38.38,0,0,0,0-.75H13.5a.38.38,0,0,0,0,.75Z" style="fill:url(#d)"/><path d="M13.5,12.34h1.25a.38.38,0,0,0,0-.75H13.5a.38.38,0,0,0,0,.75Z" style="fill:url(#e)"/><path d="M13.55,15.37H16.8a.38.38,0,0,0,0-.75H13.55a.38.38,0,0,0,0,.75Z" style="fill:url(#f)"/></svg>