<svg xmlns="http://www.w3.org/2000/svg" xmlns:xlink="http://www.w3.org/1999/xlink" viewBox="0 0 24 24"><defs><linearGradient id="a" x1="11" y1="7" x2="18" y2="7" gradientUnits="userSpaceOnUse"><stop offset="0" stop-color="#b6b7b7"/><stop offset="1" stop-color="#e0e0df"/></linearGradient><linearGradient id="b" x1="11" y1="12" x2="19" y2="12" xlink:href="#a"/><linearGradient id="c" x1="11" y1="17" x2="16" y2="17" xlink:href="#a"/></defs><circle cx="6" cy="7" r="1.5" style="fill:#dc3545"/><circle cx="6" cy="12" r="1.5" style="fill:#dc3545"/><circle cx="6" cy="17" r="1.5" style="fill:#dc3545"/><path d="M11,7.8h7a.8.8,0,0,0,0-1.6H11a.8.8,0,0,0,0,1.6Z" style="fill:url(#a)"/><path d="M11,12.8h8a.8.8,0,0,0,0-1.6H11a.8.8,0,0,0,0,1.6Z" style="fill:url(#b)"/><path d="M11,17.8h5a.8.8,0,0,0,0-1.6H11a.8.8,0,0,0,0,1.6Z" style="fill:url(#c)"/></svg>