<svg xmlns="http://www.w3.org/2000/svg" viewBox="0 0 24 24"><path d="M6,16a2,2,0,1,1-2,2,2,2,0,0,1,2-2" style="fill:#e0e0df"/><path d="M6,4A2,2,0,1,1,4,6,2,2,0,0,1,6,4" style="fill:#dc3545"/><path d="M6,10a2,2,0,1,1-2,2,2,2,0,0,1,2-2" style="fill:#b6b7b7"/><path d="M12,16a2,2,0,1,1-2,2,2,2,0,0,1,2-2" style="fill:#e0e0df"/><path d="M12,4a2,2,0,1,1-2,2,2,2,0,0,1,2-2" style="fill:#dc3545"/><path d="M12,10a2,2,0,1,1-2,2,2,2,0,0,1,2-2" style="fill:#b6b7b7"/><path d="M18,16a2,2,0,1,1-2,2,2,2,0,0,1,2-2" style="fill:#e0e0df"/><path d="M18,4a2,2,0,1,1-2,2,2,2,0,0,1,2-2" style="fill:#dc3545"/><path d="M18,10a2,2,0,1,1-2,2,2,2,0,0,1,2-2" style="fill:#b6b7b7"/></svg>