<?xml version="1.0" encoding="UTF-8" standalone="no"?>
<svg
   viewBox="0 0 24 24"
   version="1.1"
   id="svg18447"
   sodipodi:docname="form.svg"
   inkscape:version="1.2.2 (b0a84865, 2022-12-01)"
   xmlns:inkscape="http://www.inkscape.org/namespaces/inkscape"
   xmlns:sodipodi="http://sodipodi.sourceforge.net/DTD/sodipodi-0.dtd"
   xmlns:xlink="http://www.w3.org/1999/xlink"
   xmlns="http://www.w3.org/2000/svg"
   xmlns:svg="http://www.w3.org/2000/svg">
  <sodipodi:namedview
     id="namedview18449"
     pagecolor="#505050"
     bordercolor="#eeeeee"
     borderopacity="1"
     inkscape:showpageshadow="0"
     inkscape:pageopacity="0"
     inkscape:pagecheckerboard="0"
     inkscape:deskcolor="#505050"
     showgrid="false"
     inkscape:zoom="9.8333333"
     inkscape:cx="8.3389831"
     inkscape:cy="12"
     inkscape:window-width="1440"
     inkscape:window-height="872"
     inkscape:window-x="0"
     inkscape:window-y="28"
     inkscape:window-maximized="0"
     inkscape:current-layer="svg18447" />
  <defs
     id="defs18427">
    <linearGradient
       id="a"
       x1="6.55"
       y1="12.5"
       x2="17.46"
       y2="12.5"
       gradientUnits="userSpaceOnUse">
      <stop
         offset="0"
         stop-color="#b6b7b7"
         id="stop18419" />
      <stop
         offset="1"
         stop-color="#e0e0df"
         id="stop18421" />
    </linearGradient>
    <linearGradient
       id="b"
       x1="9"
       y1="9"
       x2="13"
       y2="9"
       xlink:href="#a" />
    <linearGradient
       id="c"
       x1="9"
       y1="12"
       x2="11"
       y2="12"
       xlink:href="#a" />
    <linearGradient
       id="d"
       x1="9"
       y1="15"
       x2="12"
       y2="15"
       xlink:href="#a" />
    <linearGradient
       inkscape:collect="always"
       xlink:href="#a"
       id="linearGradient18944"
       gradientUnits="userSpaceOnUse"
       x1="6.55"
       y1="12.5"
       x2="17.46"
       y2="12.5" />
  </defs>
  <g
     id="g18940"
     transform="matrix(1.661263,0,0,1.661263,-7.7723813,-8.3063152)">
    <rect
       x="7"
       y="6"
       width="10"
       height="13"
       rx="1"
       style="fill:none;stroke:url(#linearGradient18944);stroke-width:0.911541px;stroke-miterlimit:10"
       id="rect18429" />
    <path
       d="m 9,9.38 h 4 A 0.38,0.38 0 0 0 13,8.63 H 9 a 0.38,0.38 0 0 0 0,0.75 z"
       style="fill:url(#b)"
       id="path18431" />
    <path
       d="m 9,12.38 h 2 a 0.38,0.38 0 0 0 0,-0.75 H 9 a 0.38,0.38 0 0 0 0,0.75 z"
       style="fill:url(#c)"
       id="path18433" />
    <path
       d="m 9,15.37 h 3 a 0.38,0.38 0 0 0 0,-0.75 H 9 a 0.38,0.38 0 0 0 0,0.75 z"
       style="fill:url(#d)"
       id="path18435" />
    <rect
       x="9"
       y="5"
       width="6"
       height="2"
       style="fill:#dc3545"
       id="rect18437" />
    <path
       d="m 14.26,9 0.49,0.49 c 0,0 1,-1 1,-1"
       style="fill:none;stroke:#dc3545;stroke-width:0.25px;stroke-miterlimit:10"
       id="path18439" />
    <path
       d="m 12.26,11.87 0.49,0.5 1,-1"
       style="fill:none;stroke:#dc3545;stroke-width:0.25px;stroke-miterlimit:10"
       id="path18441" />
    <path
       d="m 13.28,15.49 1,-1"
       style="fill:none;stroke:#dc3545;stroke-width:0.25px;stroke-miterlimit:10"
       id="path18443" />
    <path
       d="m 14.27,15.49 -1,-1"
       style="fill:none;stroke:#dc3545;stroke-width:0.25px;stroke-miterlimit:10"
       id="path18445" />
  </g>
</svg>
