<?xml version="1.0" encoding="UTF-8" standalone="no"?>
<svg
   viewBox="0 0 24 24"
   version="1.1"
   id="svg356"
   sodipodi:docname="list.svg"
   inkscape:version="1.2.2 (b0a84865, 2022-12-01)"
   xmlns:inkscape="http://www.inkscape.org/namespaces/inkscape"
   xmlns:sodipodi="http://sodipodi.sourceforge.net/DTD/sodipodi-0.dtd"
   xmlns:xlink="http://www.w3.org/1999/xlink"
   xmlns="http://www.w3.org/2000/svg"
   xmlns:svg="http://www.w3.org/2000/svg">
  <sodipodi:namedview
     id="namedview358"
     pagecolor="#505050"
     bordercolor="#eeeeee"
     borderopacity="1"
     inkscape:showpageshadow="0"
     inkscape:pageopacity="0"
     inkscape:pagecheckerboard="0"
     inkscape:deskcolor="#505050"
     showgrid="false"
     inkscape:zoom="9.8333333"
     inkscape:cx="-0.71186441"
     inkscape:cy="12"
     inkscape:window-width="1440"
     inkscape:window-height="872"
     inkscape:window-x="0"
     inkscape:window-y="28"
     inkscape:window-maximized="0"
     inkscape:current-layer="svg356" />
  <defs
     id="defs342">
    <linearGradient
       id="a"
       x1="11"
       y1="7"
       x2="18"
       y2="7"
       gradientUnits="userSpaceOnUse">
      <stop
         offset="0"
         stop-color="#b6b7b7"
         id="stop335" />
      <stop
         offset="1"
         stop-color="#e0e0df"
         id="stop337" />
    </linearGradient>
    <linearGradient
       id="b"
       x1="11"
       y1="12"
       x2="19"
       y2="12"
       xlink:href="#a" />
    <linearGradient
       id="c"
       x1="11"
       y1="17"
       x2="16"
       y2="17"
       xlink:href="#a" />
    <linearGradient
       inkscape:collect="always"
       xlink:href="#a"
       id="linearGradient508"
       gradientUnits="userSpaceOnUse"
       x1="11"
       y1="7"
       x2="18"
       y2="7" />
  </defs>
  <g
     id="g506"
     transform="matrix(1.5686274,0,0,1.5686274,-7.0588229,-6.8235288)">
    <circle
       cx="6"
       cy="7"
       r="1.5"
       style="fill:#dc3545"
       id="circle344" />
    <circle
       cx="6"
       cy="12"
       r="1.5"
       style="fill:#dc3545"
       id="circle346" />
    <circle
       cx="6"
       cy="17"
       r="1.5"
       style="fill:#dc3545"
       id="circle348" />
    <path
       d="m 11,7.8 h 7 a 0.8,0.8 0 0 0 0,-1.6 h -7 a 0.8,0.8 0 0 0 0,1.6 z"
       style="fill:url(#linearGradient508)"
       id="path350" />
    <path
       d="m 11,12.8 h 8 a 0.8,0.8 0 0 0 0,-1.6 h -8 a 0.8,0.8 0 0 0 0,1.6 z"
       style="fill:url(#b)"
       id="path352" />
    <path
       d="m 11,17.8 h 5 a 0.8,0.8 0 0 0 0,-1.6 h -5 a 0.8,0.8 0 0 0 0,1.6 z"
       style="fill:url(#c)"
       id="path354" />
  </g>
</svg>
