<?xml version="1.0" encoding="UTF-8" standalone="no"?>
<svg
   viewBox="0 0 24 24"
   version="1.1"
   id="svg1135"
   sodipodi:docname="post.svg"
   inkscape:version="1.2.2 (b0a84865, 2022-12-01)"
   xmlns:inkscape="http://www.inkscape.org/namespaces/inkscape"
   xmlns:sodipodi="http://sodipodi.sourceforge.net/DTD/sodipodi-0.dtd"
   xmlns="http://www.w3.org/2000/svg"
   xmlns:svg="http://www.w3.org/2000/svg">
  <sodipodi:namedview
     id="namedview1137"
     pagecolor="#505050"
     bordercolor="#eeeeee"
     borderopacity="1"
     inkscape:showpageshadow="0"
     inkscape:pageopacity="0"
     inkscape:pagecheckerboard="0"
     inkscape:deskcolor="#505050"
     showgrid="false"
     inkscape:zoom="9.8333333"
     inkscape:cx="9.8644068"
     inkscape:cy="12"
     inkscape:window-width="1440"
     inkscape:window-height="872"
     inkscape:window-x="0"
     inkscape:window-y="28"
     inkscape:window-maximized="0"
     inkscape:current-layer="svg1135" />
  <defs
     id="defs1127">
    <linearGradient
       id="a"
       x1="6"
       y1="17"
       x2="9"
       y2="14"
       gradientUnits="userSpaceOnUse">
      <stop
         offset="0"
         stop-color="#b6b7b7"
         id="stop1122" />
      <stop
         offset="1"
         stop-color="#e0e0df"
         id="stop1124" />
    </linearGradient>
  </defs>
  <g
     id="g1259"
     transform="matrix(1.5927288,0,0,1.5927288,-7.4121135,-6.9177852)">
    <path
       d="m 13,19 -3,-3 a 1.42,1.42 0 0 0 -2,0 v 0 l 3,3 a 1.42,1.42 0 0 0 2,0 z"
       style="fill:#b6b7b7"
       id="path1129" />
    <path
       d="M 10.69,4.62 7,12 l 4,4 7.38,-3.69 a 0.5,0.5 0 0 0 0.13,-0.8 l -7,-7 a 0.5,0.5 0 0 0 -0.82,0.11 z"
       style="fill:#dc3545"
       id="path1131" />
    <path
       d="m 7,12 c 0,0 -2,4 -1,5 1,1 5,-1 5,-1"
       style="fill:url(#a)"
       id="path1133" />
  </g>
</svg>
