<svg xmlns="http://www.w3.org/2000/svg" xmlns:xlink="http://www.w3.org/1999/xlink" viewBox="0 0 24 24"><defs><linearGradient id="a" x1="7.75" y1="9.97" x2="20.25" y2="9.97" gradientUnits="userSpaceOnUse"><stop offset="0" stop-color="#b6b7b7"/><stop offset="1" stop-color="#e0e0df"/></linearGradient><linearGradient id="b" x1="2" y1="15.43" x2="11" y2="15.43" xlink:href="#a"/><linearGradient id="c" x1="10" y1="8" x2="18" y2="8" xlink:href="#a"/><linearGradient id="d" x1="10" y1="9.97" x2="18" y2="9.97" xlink:href="#a"/><linearGradient id="e" x1="10" y1="12" x2="14" y2="12" xlink:href="#a"/></defs><rect x="8" y="5.94" width="12" height="8.06" style="fill:none;stroke-miterlimit:10;stroke-width:0.5px;stroke:url(#a)"/><path d="M9.07,10.29A2.57,2.57,0,1,1,6.5,7.71a2.57,2.57,0,0,1,2.57,2.58" style="fill:#dc3545"/><path d="M11,18c0-2.84-2-5.14-4.5-5.14S2,15.16,2,18Z" style="fill:url(#b)"/><line x1="10" y1="8" x2="18" y2="8" style="fill:none;stroke-miterlimit:10;stroke-width:0.5px;stroke:url(#c)"/><line x1="10" y1="9.97" x2="18" y2="9.97" style="fill:none;stroke-miterlimit:10;stroke-width:0.5px;stroke:url(#d)"/><line x1="10" y1="12" x2="14" y2="12" style="fill:none;stroke-miterlimit:10;stroke-width:0.5px;stroke:url(#e)"/></svg>