<svg xmlns="http://www.w3.org/2000/svg" xmlns:xlink="http://www.w3.org/1999/xlink" viewBox="0 0 24 24"><defs><linearGradient id="a" x1="15" y1="14" x2="22" y2="14" gradientUnits="userSpaceOnUse"><stop offset="0" stop-color="#b6b7b7"/><stop offset="1" stop-color="#e0e0df"/></linearGradient><linearGradient id="b" x1="2.01" y1="14.13" x2="9" y2="14.13" xlink:href="#a"/><linearGradient id="c" x1="6" y1="15.43" x2="18" y2="15.43" xlink:href="#a"/></defs><path d="M20.5,10a2,2,0,1,1-2-2,2,2,0,0,1,2,2" style="fill:#dc3545"/><path d="M22,16a3.78,3.78,0,0,0-3.5-4A3.78,3.78,0,0,0,15,16Z" style="fill:url(#a)"/><path d="M7.5,10.13a2,2,0,1,1-2-2,2,2,0,0,1,2,2" style="fill:#dc3545"/><path d="M9,16.13a3.78,3.78,0,0,0-3.5-4,3.77,3.77,0,0,0-3.49,4Z" style="fill:url(#b)"/><path d="M15.43,8.57A3.43,3.43,0,1,1,12,5.14a3.44,3.44,0,0,1,3.43,3.43" style="fill:#dc3545"/><path d="M18,18.86C18,15.07,15.31,12,12,12s-6,3.07-6,6.86Z" style="fill:url(#c)"/></svg>