<svg xmlns="http://www.w3.org/2000/svg" xmlns:xlink="http://www.w3.org/1999/xlink" viewBox="0 0 24 24"><defs><linearGradient id="a" x1="4" y1="6.22" x2="20" y2="6.22" gradientUnits="userSpaceOnUse"><stop offset="0" stop-color="#b6b7b7"/><stop offset="1" stop-color="#e0e0df"/></linearGradient></defs><path d="M20,8.44v9.77A1.79,1.79,0,0,1,18.21,20H5.79A1.79,1.79,0,0,1,4,18.21V8.44" style="fill:#fff;stroke:#b6b7b7;stroke-miterlimit:10;stroke-width:0.25px"/><path d="M4,8.44V5.79A1.79,1.79,0,0,1,5.79,4H18.21A1.79,1.79,0,0,1,20,5.79V8.44" style="stroke:#b6b7b7;stroke-miterlimit:10;stroke-width:0.25px;fill:url(#a)"/><circle cx="12" cy="17" r="1" style="fill:#dc3545"/><path d="M11.3,14.56l-1-3.64A.73.73,0,0,1,11,10H13a.73.73,0,0,1,.7.92l-1,3.64A.73.73,0,0,1,11.3,14.56Z" style="fill:#dc3545"/></svg>