<svg xmlns="http://www.w3.org/2000/svg" viewBox="0 0 24 24"><path d="M16.81,12a4.89,4.89,0,0,0-.19-1.28L17.81,10,16.61,8l-1.18.68A4.78,4.78,0,0,0,13.2,7.36V6H10.8V7.36A4.78,4.78,0,0,0,8.57,8.63L7.39,8,6.19,10l1.19.69A5,5,0,0,0,7.19,12a5,5,0,0,0,.19,1.28L6.19,14l1.2,2.09,1.18-.68a4.78,4.78,0,0,0,2.23,1.27V18h2.4V16.64a4.78,4.78,0,0,0,2.23-1.27l1.18.68L17.81,14l-1.19-.68A5,5,0,0,0,16.81,12ZM12,14.4A2.41,2.41,0,1,1,14.41,12,2.39,2.39,0,0,1,12,14.4Z" style="fill:#dc3545"/><path d="M17.19,12c-.1-1.19-.3-1,.81-1.64a.38.38,0,0,0,.13-.51l-1.2-2.09a.38.38,0,0,0-.51-.13c-1.15.66-.81.48-1.82-.1s-1-.25-1-1.54a.38.38,0,0,0-.38-.38H10.8a.38.38,0,0,0-.38.38c0,1.35,0,.94-1,1.54s-.72.73-1.82.1a.38.38,0,0,0-.51.13L5.87,9.85a.38.38,0,0,0,.13.51c1.18.68.81.45.81,1.64s.33,1-.81,1.64a.38.38,0,0,0-.13.51l1.2,2.09a.38.38,0,0,0,.51.13c1.15-.66.81-.48,1.82.1s1,.25,1,1.54a.38.38,0,0,0,.38.38h2.4a.38.38,0,0,0,.38-.38c0-1.35,0-.94,1-1.54s.72-.73,1.82-.1a.38.38,0,0,0,.51-.13l1.2-2.09a.38.38,0,0,0-.13-.51c-1.11-.64-.91-.45-.81-1.64,0-.48-.71-.48-.75,0l-.18,1.18a.38.38,0,0,0,.17.42c.26.15.91.37,1.07.62-.3-.48-.3,0-.62.6s-.77.82-.21.83c-.28,0-.8-.46-1.05-.61a.41.41,0,0,0-.46.06,4.45,4.45,0,0,1-2.06,1.18.39.39,0,0,0-.27.36,3.9,3.9,0,0,1,0,1.23c.27-.49-.2-.23-.83-.23s-1.1-.26-.83.23a3.9,3.9,0,0,1,0-1.23.39.39,0,0,0-.27-.36A4.45,4.45,0,0,1,8.84,15.1.41.41,0,0,0,8.38,15c-.25.15-.77.6-1.05.61.56,0,.1-.29-.21-.83s-.32-1.08-.62-.6c.16-.25.81-.47,1.07-.62a.4.4,0,0,0,.18-.42,3.81,3.81,0,0,1,0-2.36.4.4,0,0,0-.18-.42c-.26-.15-.91-.37-1.07-.62.3.48.3,0,.62-.6s.77-.82.21-.83c.28,0,.8.46,1.05.61a.41.41,0,0,0,.46-.06A4.45,4.45,0,0,1,10.9,7.72a.39.39,0,0,0,.27-.36,3.9,3.9,0,0,1,0-1.23c-.27.49.2.23.83.23s1.1.26.83-.23a3.9,3.9,0,0,1,0,1.23.39.39,0,0,0,.27.36A4.45,4.45,0,0,1,15.16,8.9a.41.41,0,0,0,.46.06c.25-.15.77-.61,1.05-.61-.56,0-.1.29.21.83s.32,1.08.62.6c-.16.25-.81.47-1.07.62a.38.38,0,0,0-.17.42L16.44,12C16.48,12.48,17.23,12.48,17.19,12Z" style="fill:#dc3545"/><path d="M12,14C9.4,13.89,9.38,10,12,10s2.6,3.92,0,4.06c-.48,0-.48.78,0,.75a2.78,2.78,0,1,0-2.77-2.91A2.83,2.83,0,0,0,12,14.78C12.48,14.81,12.48,14.06,12,14Z" style="fill:#dc3545"/></svg>