<?xml version="1.0" encoding="utf-8"?>
<!-- Generator: Adobe Illustrator 25.0.0, SVG Export Plug-In . SVG Version: 6.00 Build 0)  -->
<svg version="1.1" id="Calque_1" xmlns="http://www.w3.org/2000/svg" xmlns:xlink="http://www.w3.org/1999/xlink" x="0px" y="0px"
	 viewBox="0 0 194.3 194.3" style="enable-background:new 0 0 194.3 194.3;" xml:space="preserve">
<g id="Bleu">
	<path d="M184.9,55.6c1.6,3.4,3.2,7.3,4.6,11.6c2.6,8.2,3.8,15.6,4.3,21.7c-1.9,0.3-5.4,0.6-9.1-0.8c-8.5-3.3-10.8-12.4-11-13.4
		c-0.2-1.4-0.9-6.7,2.4-12.1C179.2,57.9,183.5,56.1,184.9,55.6z"/>
	<path d="M152,17c2.3,1.6,5.4,3.8,8.7,6.6c0.3,0.3,2.1,1.8,4,3.7c4.8,4.7,8.8,9.7,11.9,14c-1,0.8-6.7,5.5-14,4.2
		c-2.6-0.5-5.4-1.7-8.2-4.2c-1.5-1.4-5.9-5.1-6.6-11.6C147.2,22.8,151.2,17.9,152,17z"/>
	<path d="M138.8,9.4c-4.3-2.1-10.5-4.7-18.2-6.6c-6-1.5-21.7-4.9-41.5-1.1c-18.5,3.5-31.3,11.4-36.6,15c-4,2.7-11.3,8.1-18.8,16.8
		C7.2,52.6,2.7,73.2,1.6,79.1c-1.2,6.4-5.9,34.3,9.1,63.3c7.8,15,17.9,24.5,23.1,29c3,2.6,12,9.9,24.9,15.4
		c27.4,11.6,53.7,6.9,64.5,4.2c5.7-1.6,12.3-4.1,19.2-7.8c17.4-9.3,28.3-22,34.4-30.4c-1.8-1-4.7-2.3-8.4-2.7
		c-4.7-0.4-8.5,1-10.5,1.9c-10.6,4.8-25.4,26.4-65.6,25.4c0,0-1.9-35,26.4-57.2s23.1-45,18.3-59.1l-16.1,6.4
		c0,0,13.8,49.2-42.8,42.1c0,0-20.9-2.9-32.5,14.8l-17.7-16.7l65.2-69.2c0.6-0.6,1-1.3,1.2-2.1c0.9-3,2.8-10.9-0.1-19
		c6.9,0.8,13.8,1.5,20.7,2.3c3.7,0.4,5.1,0.4,6.9,0.1C129.9,18.7,135.5,13.3,138.8,9.4z"/>
	<path d="M193.9,105c-0.3,4.6-1.1,10.1-2.6,16.2c-1.8,7.2-4.2,13.1-6.5,17.8c-1.4-0.6-6.3-2.9-9-8.5c-3.9-8,0.1-15.8,0.6-16.6
		c0.5-1.5,1.2-3.2,2.6-4.7C184.1,103.3,193.1,104.8,193.9,105z"/>
	<ellipse transform="matrix(0.1602 -0.9871 0.9871 0.1602 19.1318 151.3499)" cx="98.5" cy="64.4" rx="9.1" ry="9.2"/>
</g>
</svg>
