<?xml version="1.0" encoding="UTF-8" standalone="no"?>
<svg
   viewBox="0 0 24 24"
   version="1.1"
   id="svg17"
   sodipodi:docname="admin.svg"
   inkscape:version="1.2.2 (b0a8486541, 2022-12-01)"
   xmlns:inkscape="http://www.inkscape.org/namespaces/inkscape"
   xmlns:sodipodi="http://sodipodi.sourceforge.net/DTD/sodipodi-0.dtd"
   xmlns="http://www.w3.org/2000/svg"
   xmlns:svg="http://www.w3.org/2000/svg">
  <sodipodi:namedview
     id="namedview19"
     pagecolor="#ffffff"
     bordercolor="#000000"
     borderopacity="0.25"
     inkscape:showpageshadow="2"
     inkscape:pageopacity="0.0"
     inkscape:pagecheckerboard="0"
     inkscape:deskcolor="#d1d1d1"
     showgrid="false"
     inkscape:zoom="35.625"
     inkscape:cx="11.985965"
     inkscape:cy="12"
     inkscape:window-width="1920"
     inkscape:window-height="1030"
     inkscape:window-x="0"
     inkscape:window-y="0"
     inkscape:window-maximized="1"
     inkscape:current-layer="svg17" />
  <defs
     id="defs7">
    <linearGradient
       id="a"
       x1="8.29"
       y1="16.44"
       x2="13.09"
       y2="8.11"
       gradientUnits="userSpaceOnUse">
      <stop
         offset="0"
         stop-color="#b6b7b7"
         id="stop2" />
      <stop
         offset="1"
         stop-color="#e0e0df"
         id="stop4" />
    </linearGradient>
  </defs>
  <g
     id="g252"
     transform="matrix(1.3614649,0,0,1.3614649,-4.5768932,-4.3309041)">
    <path
       d="m 6,18 h 11 c 2,0 4.24,-10 2,-10 -3,0 -2,7 -4,7 -2.24,0 -6,1 -9,1 -3,0 -4,2 0,2 z"
       style="fill:#dc3545"
       id="path9" />
    <path
       d="m 15.5,15 c 0,-1.88 0.13,-4.1 -1,-5.7 C 13.37,7.7 10.86,7.28 9,7.59 a 4.49,4.49 0 0 0 -3.12,7 c 1.86,2.54 7.28,2.81 7.81,-1 0.42,-3 -3.86,-6 -5.94,-3.06 a 2.48,2.48 0 0 0 1.17,3.74 c 1.64,0.61 3.1,-0.41 2,-2.06 -0.34,-0.55 -1.21,0 -0.86,0.5 0.5,0.8 -0.48,0.87 -1.07,0.52 A 1.46,1.46 0 0 1 8.54,11.09 c 1,-1.37 3.27,-0.44 3.88,0.85 1.65,3.48 -3.54,4.42 -5.5,2.37 A 3.48,3.48 0 0 1 9.06,8.58 c 1.72,-0.31 4,0 4.85,1.73 0.73,1.39 0.59,3.17 0.59,4.69 a 0.5,0.5 0 0 0 1,0 z"
       style="fill:url(#a)"
       id="path11" />
    <path
       d="M 18,10.5 C 18,9.37 18.05,7.73 18.85,6.85 19.29,6.38 18.58,5.67 18.15,6.15 17.14,7.25 17,9.07 17,10.5 a 0.5,0.5 0 0 0 1,0 z"
       style="fill:#fec111"
       id="path13" />
    <path
       d="M 20,9.5 A 4,4 0 0 1 20.85,6.85 C 21.29,6.38 20.59,5.67 20.15,6.15 A 5,5 0 0 0 19,9.5 a 0.5,0.5 0 0 0 1,0 z"
       style="fill:#fec111"
       id="path15" />
  </g>
</svg>
