<?xml version="1.0" encoding="UTF-8" standalone="no"?>
<!-- Generator: Adobe Illustrator 25.0.0, SVG Export Plug-In . SVG Version: 6.00 Build 0)  -->

<svg
   version="1.1"
   id="Calque_1"
   x="0px"
   y="0px"
   viewBox="0 0 24 24"
   style="enable-background:new 0 0 24 24;"
   xml:space="preserve"
   sodipodi:docname="club.svg"
   inkscape:version="1.2.2 (b0a8486541, 2022-12-01)"
   xmlns:inkscape="http://www.inkscape.org/namespaces/inkscape"
   xmlns:sodipodi="http://sodipodi.sourceforge.net/DTD/sodipodi-0.dtd"
   xmlns="http://www.w3.org/2000/svg"
   xmlns:svg="http://www.w3.org/2000/svg"><defs
   id="defs34" /><sodipodi:namedview
   id="namedview32"
   pagecolor="#ffffff"
   bordercolor="#000000"
   borderopacity="0.25"
   inkscape:showpageshadow="2"
   inkscape:pageopacity="0.0"
   inkscape:pagecheckerboard="0"
   inkscape:deskcolor="#d1d1d1"
   showgrid="false"
   inkscape:zoom="35.625"
   inkscape:cx="11.985965"
   inkscape:cy="12"
   inkscape:window-width="1920"
   inkscape:window-height="1030"
   inkscape:window-x="0"
   inkscape:window-y="0"
   inkscape:window-maximized="1"
   inkscape:current-layer="Calque_1" />
<style
   type="text/css"
   id="style2">
	.st0{fill:#DC3545;}
	.st1{fill:url(#SVGID_1_);}
	.st2{fill:url(#SVGID_2_);}
	.st3{fill:url(#SVGID_3_);}
</style>

<linearGradient
   id="SVGID_1_"
   gradientUnits="userSpaceOnUse"
   x1="15"
   y1="12"
   x2="22"
   y2="12"
   gradientTransform="matrix(1,0,0,-1,0,26)">
	<stop
   offset="0"
   style="stop-color:#B6B7B7"
   id="stop6" />
	<stop
   offset="1"
   style="stop-color:#E0E0DF"
   id="stop8" />
</linearGradient>


<linearGradient
   id="SVGID_2_"
   gradientUnits="userSpaceOnUse"
   x1="2.01"
   y1="11.87"
   x2="9"
   y2="11.87"
   gradientTransform="matrix(1,0,0,-1,0,26)">
	<stop
   offset="0"
   style="stop-color:#B6B7B7"
   id="stop15" />
	<stop
   offset="1"
   style="stop-color:#E0E0DF"
   id="stop17" />
</linearGradient>


<linearGradient
   id="SVGID_3_"
   gradientUnits="userSpaceOnUse"
   x1="6"
   y1="10.57"
   x2="18"
   y2="10.57"
   gradientTransform="matrix(1,0,0,-1,0,26)">
	<stop
   offset="0"
   style="stop-color:#B6B7B7"
   id="stop24" />
	<stop
   offset="1"
   style="stop-color:#E0E0DF"
   id="stop26" />
</linearGradient>
<g
   id="g269"
   transform="matrix(1.199434,0,0,1.199434,-2.3932085,-2.4505121)"><path
     class="st0"
     d="m 20.5,10 c 0,1.1 -0.9,2 -2,2 -1.1,0 -2,-0.9 -2,-2 0,-1.1 0.9,-2 2,-2 1.1,0 2,0.9 2,2"
     id="path4" /><path
     class="st1"
     d="m 22,16 c 0.1,-2.1 -1.4,-3.9 -3.5,-4 -2.1,0.1 -3.6,1.9 -3.5,4 z"
     id="path11"
     style="fill:url(#SVGID_1_)" /><path
     class="st0"
     d="m 7.5,10.1 c 0,1.1 -0.9,2 -2,2 -1.1,0 -2,-0.9 -2,-2 0,-1.1 0.9,-2 2,-2 1.1,0 2,0.9 2,2"
     id="path13" /><path
     class="st2"
     d="M 9,16.1 C 9.1,14 7.6,12.2 5.5,12.1 3.4,12.2 1.9,14 2,16.1 Z"
     id="path20"
     style="fill:url(#SVGID_2_)" /><path
     class="st0"
     d="M 15.4,8.6 C 15.4,10.5 13.9,12 12,12 10.1,12 8.6,10.5 8.6,8.6 8.6,6.7 10.1,5.2 12,5.2 c 1.9,-0.1 3.4,1.5 3.4,3.4"
     id="path22" /><path
     class="st3"
     d="M 18,18.9 C 18,15.1 15.3,12 12,12 8.7,12 6,15.1 6,18.9 Z"
     id="path29"
     style="fill:url(#SVGID_3_)" /></g>
</svg>
