<?xml version="1.0" encoding="UTF-8" standalone="no"?>
<!-- Generator: Adobe Illustrator 25.0.0, SVG Export Plug-In . SVG Version: 6.00 Build 0)  -->

<svg
   version="1.1"
   id="Calque_1"
   x="0px"
   y="0px"
   viewBox="0 0 24 24"
   style="enable-background:new 0 0 24 24;"
   xml:space="preserve"
   sodipodi:docname="event.svg"
   inkscape:version="1.2.2 (b0a8486541, 2022-12-01)"
   xmlns:inkscape="http://www.inkscape.org/namespaces/inkscape"
   xmlns:sodipodi="http://sodipodi.sourceforge.net/DTD/sodipodi-0.dtd"
   xmlns="http://www.w3.org/2000/svg"
   xmlns:svg="http://www.w3.org/2000/svg"><defs
   id="defs20" /><sodipodi:namedview
   id="namedview18"
   pagecolor="#ffffff"
   bordercolor="#000000"
   borderopacity="0.25"
   inkscape:showpageshadow="2"
   inkscape:pageopacity="0.0"
   inkscape:pagecheckerboard="0"
   inkscape:deskcolor="#d1d1d1"
   showgrid="false"
   inkscape:zoom="35.625"
   inkscape:cx="11.985965"
   inkscape:cy="12"
   inkscape:window-width="1920"
   inkscape:window-height="1030"
   inkscape:window-x="0"
   inkscape:window-y="0"
   inkscape:window-maximized="1"
   inkscape:current-layer="Calque_1" />
<style
   type="text/css"
   id="style2">
	.st0{fill:#FFFFFF;stroke:#B6B7B7;stroke-width:0.25;stroke-miterlimit:10;}
	.st1{fill:url(#SVGID_1_);stroke:#B6B7B7;stroke-width:0.25;stroke-miterlimit:10;}
	.st2{fill:#DC3545;}
</style>

<linearGradient
   id="SVGID_1_"
   gradientUnits="userSpaceOnUse"
   x1="4"
   y1="19.78"
   x2="20"
   y2="19.78"
   gradientTransform="matrix(1,0,0,-1,0,26)">
	<stop
   offset="0"
   style="stop-color:#B6B7B7"
   id="stop6" />
	<stop
   offset="1"
   style="stop-color:#E0E0DF"
   id="stop8" />
</linearGradient>


<g
   id="g253"
   transform="matrix(1.476923,0,0,1.476923,-5.7230767,-5.7230767)"><path
     class="st0"
     d="m 20,8.4 v 9.8 c 0,1 -0.8,1.8 -1.8,1.8 v 0 H 5.8 C 4.8,20 4,19.2 4,18.2 v 0 -9.8"
     id="path4" /><path
     class="st1"
     d="M 4,8.4 V 5.8 C 4,4.8 4.8,4 5.8,4 h 12.4 c 1,0 1.8,0.8 1.8,1.8 0,0 0,0 0,0 v 2.6"
     id="path11"
     style="fill:url(#SVGID_1_)" /><circle
     class="st2"
     cx="12"
     cy="17"
     r="1"
     id="circle13" /><path
     class="st2"
     d="m 11.3,14.6 -1,-3.6 c -0.1,-0.4 0.1,-0.8 0.5,-0.9 0.1,0 0.1,0 0.2,0 h 2 c 0.4,0 0.7,0.3 0.7,0.7 0,0.1 0,0.1 0,0.2 l -1,3.6 C 12.6,15 12.2,15.2 11.8,15.1 11.6,15 11.4,14.8 11.3,14.6 Z"
     id="path15" /></g>
</svg>
