<?xml version="1.0" encoding="UTF-8" standalone="no"?>
<svg
   viewBox="0 0 24 24"
   version="1.1"
   id="svg18"
   sodipodi:docname="family.svg"
   inkscape:version="1.2.2 (b0a8486541, 2022-12-01)"
   xmlns:inkscape="http://www.inkscape.org/namespaces/inkscape"
   xmlns:sodipodi="http://sodipodi.sourceforge.net/DTD/sodipodi-0.dtd"
   xmlns:xlink="http://www.w3.org/1999/xlink"
   xmlns="http://www.w3.org/2000/svg"
   xmlns:svg="http://www.w3.org/2000/svg">
  <sodipodi:namedview
     id="namedview20"
     pagecolor="#ffffff"
     bordercolor="#000000"
     borderopacity="0.25"
     inkscape:showpageshadow="2"
     inkscape:pageopacity="0.0"
     inkscape:pagecheckerboard="0"
     inkscape:deskcolor="#d1d1d1"
     showgrid="false"
     inkscape:zoom="35.625"
     inkscape:cx="11.985965"
     inkscape:cy="12"
     inkscape:window-width="1920"
     inkscape:window-height="1030"
     inkscape:window-x="0"
     inkscape:window-y="0"
     inkscape:window-maximized="1"
     inkscape:current-layer="svg18" />
  <defs
     id="defs8">
    <linearGradient
       id="a"
       x1="8.52"
       y1="14.72"
       x2="20"
       y2="14.72"
       gradientUnits="userSpaceOnUse">
      <stop
         offset="0"
         stop-color="#b6b7b7"
         id="stop2" />
      <stop
         offset="1"
         stop-color="#e0e0df"
         id="stop4" />
    </linearGradient>
    <linearGradient
       id="b"
       x1="4"
       y1="15.71"
       x2="12"
       y2="15.71"
       xlink:href="#a" />
    <linearGradient
       inkscape:collect="always"
       xlink:href="#a"
       id="linearGradient255"
       gradientUnits="userSpaceOnUse"
       x1="8.52"
       y1="14.72"
       x2="20"
       y2="14.72" />
  </defs>
  <g
     id="g253"
     transform="matrix(1.4992589,0,0,1.4992589,-5.9851784,-5.1515218)">
    <path
       d="M 17.54,8.16 A 3.28,3.28 0 1 1 14.26,4.88 3.28,3.28 0 0 1 17.54,8.16"
       style="fill:#dc3545"
       id="path10" />
    <path
       d="m 20,18 c 0,-3.62 -2.57,-6.56 -5.74,-6.56 -3.17,0 -5.74,2.94 -5.74,6.56 z"
       style="fill:url(#linearGradient255)"
       id="path12" />
    <path
       d="M 10.29,11.14 A 2.29,2.29 0 1 1 8,8.86 a 2.3,2.3 0 0 1 2.29,2.28"
       style="fill:#dc3545"
       id="path14" />
    <path
       d="M 12,18 A 4.32,4.32 0 0 0 8,13.43 4.32,4.32 0 0 0 4,18 Z"
       style="fill:url(#b)"
       id="path16" />
  </g>
</svg>
