<?xml version="1.0" encoding="UTF-8" standalone="no"?>
<svg
   viewBox="0 0 24 24"
   version="1.1"
   id="svg32"
   sodipodi:docname="library.svg"
   inkscape:version="1.2.2 (b0a8486541, 2022-12-01)"
   xmlns:inkscape="http://www.inkscape.org/namespaces/inkscape"
   xmlns:sodipodi="http://sodipodi.sourceforge.net/DTD/sodipodi-0.dtd"
   xmlns:xlink="http://www.w3.org/1999/xlink"
   xmlns="http://www.w3.org/2000/svg"
   xmlns:svg="http://www.w3.org/2000/svg">
  <sodipodi:namedview
     id="namedview34"
     pagecolor="#ffffff"
     bordercolor="#000000"
     borderopacity="0.25"
     inkscape:showpageshadow="2"
     inkscape:pageopacity="0.0"
     inkscape:pagecheckerboard="0"
     inkscape:deskcolor="#d1d1d1"
     showgrid="false"
     inkscape:zoom="35.625"
     inkscape:cx="12.014035"
     inkscape:cy="12.02807"
     inkscape:window-width="1920"
     inkscape:window-height="1030"
     inkscape:window-x="0"
     inkscape:window-y="0"
     inkscape:window-maximized="1"
     inkscape:current-layer="svg32" />
  <defs
     id="defs12">
    <linearGradient
       id="a"
       x1="6.5"
       y1="8.96"
       x2="10.5"
       y2="8.96"
       gradientUnits="userSpaceOnUse">
      <stop
         offset="0"
         stop-color="#b6b7b7"
         id="stop2" />
      <stop
         offset="1"
         stop-color="#e0e0df"
         id="stop4" />
    </linearGradient>
    <linearGradient
       id="b"
       x1="6.5"
       y1="12"
       x2="10.5"
       y2="12"
       xlink:href="#a" />
    <linearGradient
       id="c"
       x1="6.5"
       y1="15"
       x2="8.57"
       y2="15"
       xlink:href="#a" />
    <linearGradient
       id="d"
       x1="13.5"
       y1="8.96"
       x2="16"
       y2="8.96"
       xlink:href="#a" />
    <linearGradient
       id="e"
       x1="13.5"
       y1="11.97"
       x2="14.75"
       y2="11.97"
       xlink:href="#a" />
    <linearGradient
       id="f"
       x1="13.55"
       y1="15"
       x2="16.8"
       y2="15"
       xlink:href="#a" />
    <linearGradient
       inkscape:collect="always"
       xlink:href="#a"
       id="linearGradient274"
       gradientUnits="userSpaceOnUse"
       x1="6.5"
       y1="8.96"
       x2="10.5"
       y2="8.96" />
  </defs>
  <g
     id="g272"
     transform="matrix(1.6417198,0,0,1.6417198,-7.7006377,-7.8652961)">
    <path
       d="M 12,18 C 12,17.45 10.43,17 8.5,17 6.57,17 5,17.45 5,18 V 7.48 c 0,-0.55 1.57,-1 3.5,-1 1.93,0 3.5,0.45 3.5,1"
       style="fill:none;stroke:#dc3545;stroke-width:0.618816px;stroke-miterlimit:10"
       id="path14" />
    <path
       d="m 12,18 c 0,-0.55 1.57,-1 3.5,-1 1.93,0 3.5,0.45 3.5,1 V 7.52 c 0,-0.56 -1.57,-1 -3.5,-1 -1.93,0 -3.5,0.48 -3.5,1"
       style="fill:none;stroke:#dc3545;stroke-width:0.618816px;stroke-miterlimit:10"
       id="path16" />
    <line
       x1="12"
       y1="18.030001"
       x2="12"
       y2="7.48"
       style="fill:none;stroke:#dc3545;stroke-width:0.618816px;stroke-miterlimit:10"
       id="line18" />
    <path
       d="m 6.5,9.34 h 4 a 0.38,0.38 0 0 0 0,-0.75 h -4 a 0.38,0.38 0 0 0 0,0.75 z"
       style="fill:url(#linearGradient274)"
       id="path20" />
    <path
       d="m 6.5,12.37 h 4 a 0.38,0.38 0 0 0 0,-0.75 h -4 a 0.38,0.38 0 0 0 0,0.75 z"
       style="fill:url(#b)"
       id="path22" />
    <path
       d="m 6.5,15.37 h 2.07 a 0.38,0.38 0 0 0 0,-0.75 H 6.5 a 0.38,0.38 0 0 0 0,0.75 z"
       style="fill:url(#c)"
       id="path24" />
    <path
       d="M 13.5,9.34 H 16 a 0.38,0.38 0 0 0 0,-0.75 h -2.5 a 0.38,0.38 0 0 0 0,0.75 z"
       style="fill:url(#d)"
       id="path26" />
    <path
       d="m 13.5,12.34 h 1.25 a 0.38,0.38 0 0 0 0,-0.75 H 13.5 a 0.38,0.38 0 0 0 0,0.75 z"
       style="fill:url(#e)"
       id="path28" />
    <path
       d="m 13.55,15.37 h 3.25 a 0.38,0.38 0 0 0 0,-0.75 h -3.25 a 0.38,0.38 0 0 0 0,0.75 z"
       style="fill:url(#f)"
       id="path30" />
  </g>
</svg>
