<?xml version="1.0" encoding="UTF-8" standalone="no"?>
<svg
   viewBox="0 0 24 24"
   version="1.1"
   id="svg16"
   sodipodi:docname="notification.svg"
   inkscape:version="1.2.2 (b0a8486541, 2022-12-01)"
   xmlns:inkscape="http://www.inkscape.org/namespaces/inkscape"
   xmlns:sodipodi="http://sodipodi.sourceforge.net/DTD/sodipodi-0.dtd"
   xmlns:xlink="http://www.w3.org/1999/xlink"
   xmlns="http://www.w3.org/2000/svg"
   xmlns:svg="http://www.w3.org/2000/svg">
  <sodipodi:namedview
     id="namedview18"
     pagecolor="#ffffff"
     bordercolor="#000000"
     borderopacity="0.25"
     inkscape:showpageshadow="2"
     inkscape:pageopacity="0.0"
     inkscape:pagecheckerboard="0"
     inkscape:deskcolor="#d1d1d1"
     showgrid="false"
     inkscape:zoom="12.59534"
     inkscape:cx="-11.353406"
     inkscape:cy="9.1700585"
     inkscape:window-width="1920"
     inkscape:window-height="1030"
     inkscape:window-x="0"
     inkscape:window-y="0"
     inkscape:window-maximized="1"
     inkscape:current-layer="svg16" />
  <defs
     id="defs8">
    <linearGradient
       id="a"
       x1="5"
       y1="16.04"
       x2="19"
       y2="16.04"
       gradientUnits="userSpaceOnUse">
      <stop
         offset="0"
         stop-color="#b6b7b7"
         id="stop2" />
      <stop
         offset="1"
         stop-color="#e0e0df"
         id="stop4" />
    </linearGradient>
    <linearGradient
       id="b"
       x1="5"
       y1="10.48"
       x2="19"
       y2="10.48"
       xlink:href="#a" />
    <linearGradient
       inkscape:collect="always"
       xlink:href="#a"
       id="linearGradient198"
       gradientUnits="userSpaceOnUse"
       x1="5"
       y1="16.04"
       x2="19"
       y2="16.04" />
  </defs>
  <g
     id="g196"
     transform="matrix(1.5525112,0,0,1.5525112,-6.6301344,-6.9260233)">
    <path
       d="m 15,16.92 a 3,3 0 0 1 -6,0 c 0,-1.66 1.34,-2 3,-2 1.66,0 3,0.34 3,2"
       style="fill:#dc3545"
       id="path10" />
    <ellipse
       cx="12"
       cy="16.040001"
       rx="7"
       ry="1.37"
       style="fill:url(#linearGradient198)"
       id="ellipse12" />
    <path
       d="M 16,9 A 4,4 0 0 0 12.94,5.12 1,1 0 0 0 11.06,5.12 4,4 0 0 0 8,9 c 0,5 -3,6 -3,7 0,0.61 14,0.7 14,0 0,-1 -3,-2 -3,-7 z"
       style="fill:url(#b)"
       id="path14" />
  </g>
</svg>
