<?xml version="1.0" encoding="UTF-8" standalone="no"?>
<!-- Generator: Adobe Illustrator 25.0.0, SVG Export Plug-In . SVG Version: 6.00 Build 0)  -->

<svg
   version="1.1"
   id="Calque_1"
   x="0px"
   y="0px"
   viewBox="0 0 24 24"
   style="enable-background:new 0 0 24 24;"
   xml:space="preserve"
   sodipodi:docname="notification-new.svg"
   inkscape:version="1.2.2 (b0a8486541, 2022-12-01)"
   xmlns:inkscape="http://www.inkscape.org/namespaces/inkscape"
   xmlns:sodipodi="http://sodipodi.sourceforge.net/DTD/sodipodi-0.dtd"
   xmlns="http://www.w3.org/2000/svg"
   xmlns:svg="http://www.w3.org/2000/svg"><defs
   id="defs31" /><sodipodi:namedview
   id="namedview29"
   pagecolor="#ffffff"
   bordercolor="#000000"
   borderopacity="0.25"
   inkscape:showpageshadow="2"
   inkscape:pageopacity="0.0"
   inkscape:pagecheckerboard="0"
   inkscape:deskcolor="#d1d1d1"
   showgrid="false"
   inkscape:zoom="35.625"
   inkscape:cx="11.985965"
   inkscape:cy="12.02807"
   inkscape:window-width="1920"
   inkscape:window-height="1030"
   inkscape:window-x="0"
   inkscape:window-y="0"
   inkscape:window-maximized="1"
   inkscape:current-layer="Calque_1" />
<style
   type="text/css"
   id="style2">
	.st0{fill:#DC3545;}
	.st1{fill:url(#SVGID_1_);}
	.st2{fill:url(#SVGID_2_);}
	.st3{fill:none;stroke:#DC3545;stroke-width:0.75;stroke-miterlimit:10;}
	.st4{fill:none;stroke:#DC3545;stroke-width:0.75;stroke-linejoin:bevel;stroke-dasharray:5.0155;}
</style>

<linearGradient
   id="SVGID_1_"
   gradientUnits="userSpaceOnUse"
   x1="5"
   y1="9.96"
   x2="19"
   y2="9.96"
   gradientTransform="matrix(1,0,0,-1,0,26)">
	<stop
   offset="0"
   style="stop-color:#B6B7B7"
   id="stop6" />
	<stop
   offset="1"
   style="stop-color:#E0E0DF"
   id="stop8" />
</linearGradient>

<linearGradient
   id="SVGID_2_"
   gradientUnits="userSpaceOnUse"
   x1="5"
   y1="15.5236"
   x2="19"
   y2="15.5236"
   gradientTransform="matrix(1,0,0,-1,0,26)">
	<stop
   offset="0"
   style="stop-color:#B6B7B7"
   id="stop13" />
	<stop
   offset="1"
   style="stop-color:#E0E0DF"
   id="stop15" />
</linearGradient>

<g
   id="g344"
   transform="matrix(1.4736141,0,0,1.4736141,-5.6833692,-5.0301977)"><path
     class="st0"
     d="m 16.7,16.7 c 0,1.7 -1.3,3 -3,3 -1.7,0 -3,-1.3 -3,-3 0,-1.7 1.3,-2 3,-2 1.7,0 3,0.4 3,2"
     id="path4" /><ellipse
     class="st1"
     cx="12"
     cy="16"
     rx="7"
     ry="1.4"
     id="ellipse11"
     style="fill:url(#SVGID_1_)" /><path
     class="st2"
     d="M 16,9 C 16,7.2 14.7,5.6 12.9,5.1 12.7,4.6 12.1,4.3 11.6,4.5 11.3,4.6 11.1,4.8 11,5.1 9.3,5.6 8,7.2 8,9 c 0,5 -3,6 -3,7 0,0.6 14,0.7 14,0 0,-1 -3,-2 -3,-7 z"
     id="path18"
     style="fill:url(#SVGID_2_)" /><g
     id="g26">
	<path
   class="st3"
   d="M 5.9,7.4 C 5.9,6 7.8,3.8 9,3.8"
   id="path20" />
	<g
   id="g24">
		<path
   class="st4"
   d="M 18.1,7.4 C 18.1,6 16.2,3.8 15,3.8"
   id="path22" />
	</g>
</g></g>
</svg>
