<?xml version="1.0" encoding="UTF-8" standalone="no"?>
<svg
   viewBox="0 0 24 24"
   version="1.1"
   id="svg15"
   sodipodi:docname="post.svg"
   inkscape:version="1.2.2 (b0a8486541, 2022-12-01)"
   xmlns:inkscape="http://www.inkscape.org/namespaces/inkscape"
   xmlns:sodipodi="http://sodipodi.sourceforge.net/DTD/sodipodi-0.dtd"
   xmlns="http://www.w3.org/2000/svg"
   xmlns:svg="http://www.w3.org/2000/svg">
  <sodipodi:namedview
     id="namedview17"
     pagecolor="#ffffff"
     bordercolor="#000000"
     borderopacity="0.25"
     inkscape:showpageshadow="2"
     inkscape:pageopacity="0.0"
     inkscape:pagecheckerboard="0"
     inkscape:deskcolor="#d1d1d1"
     showgrid="false"
     inkscape:zoom="25.190679"
     inkscape:cx="15.204036"
     inkscape:cy="7.5226237"
     inkscape:window-width="1920"
     inkscape:window-height="1030"
     inkscape:window-x="0"
     inkscape:window-y="0"
     inkscape:window-maximized="1"
     inkscape:current-layer="svg15" />
  <defs
     id="defs7">
    <linearGradient
       id="a"
       x1="6"
       y1="17"
       x2="9"
       y2="14"
       gradientUnits="userSpaceOnUse">
      <stop
         offset="0"
         stop-color="#b6b7b7"
         id="stop2" />
      <stop
         offset="1"
         stop-color="#e0e0df"
         id="stop4" />
    </linearGradient>
  </defs>
  <g
     id="g195"
     transform="matrix(1.5911943,0,0,1.5927287,-7.3934111,-6.9177837)">
    <path
       d="m 13,19 -3,-3 a 1.42,1.42 0 0 0 -2,0 v 0 l 3,3 a 1.42,1.42 0 0 0 2,0 z"
       style="fill:#b6b7b7"
       id="path9" />
    <path
       d="M 10.69,4.62 7,12 l 4,4 7.38,-3.69 a 0.5,0.5 0 0 0 0.13,-0.8 l -7,-7 a 0.5,0.5 0 0 0 -0.82,0.11 z"
       style="fill:#dc3545"
       id="path11" />
    <path
       d="m 7,12 c 0,0 -2,4 -1,5 1,1 5,-1 5,-1"
       style="fill:url(#a)"
       id="path13" />
  </g>
</svg>
