<?xml version="1.0" encoding="UTF-8" standalone="no"?>
<!-- Generator: Adobe Illustrator 25.0.0, SVG Export Plug-In . SVG Version: 6.00 Build 0)  -->

<svg
   version="1.1"
   id="Calque_1"
   x="0px"
   y="0px"
   viewBox="0 0 24 24"
   style="enable-background:new 0 0 24 24;"
   xml:space="preserve"
   sodipodi:docname="roommates.svg"
   inkscape:version="1.2.2 (b0a8486541, 2022-12-01)"
   xmlns:inkscape="http://www.inkscape.org/namespaces/inkscape"
   xmlns:sodipodi="http://sodipodi.sourceforge.net/DTD/sodipodi-0.dtd"
   xmlns="http://www.w3.org/2000/svg"
   xmlns:svg="http://www.w3.org/2000/svg"><defs
   id="defs16" /><sodipodi:namedview
   id="namedview14"
   pagecolor="#ffffff"
   bordercolor="#000000"
   borderopacity="0.25"
   inkscape:showpageshadow="2"
   inkscape:pageopacity="0.0"
   inkscape:pagecheckerboard="0"
   inkscape:deskcolor="#d1d1d1"
   showgrid="false"
   inkscape:zoom="25.190679"
   inkscape:cx="9.2097557"
   inkscape:cy="10.777796"
   inkscape:window-width="1920"
   inkscape:window-height="1030"
   inkscape:window-x="0"
   inkscape:window-y="0"
   inkscape:window-maximized="1"
   inkscape:current-layer="Calque_1" />
<style
   type="text/css"
<<<<<<<< HEAD:frontend/src/assets/icons/scalable/roommates.svg
   id="style13952">
========
   id="style2">
>>>>>>>> origin/react-app:backend/static/img/icons/cropped/roommates.svg
	.st0{fill:url(#SVGID_1_);}
	.st1{fill:#DC3545;}
</style>
<linearGradient
   id="SVGID_1_"
   gradientUnits="userSpaceOnUse"
   x1="4"
   y1="9"
   x2="20"
   y2="9"
   gradientTransform="matrix(1,0,0,-1,0,26)">
	<stop
   offset="0"
   style="stop-color:#B6B7B7"
   id="stop4" />
	<stop
   offset="1"
   style="stop-color:#E0E0DF"
   id="stop6" />
</linearGradient>

<g
<<<<<<<< HEAD:frontend/src/assets/icons/scalable/roommates.svg
   id="g14450"
   transform="matrix(36,0,0,36,-144,-144)"><ellipse
========
   id="g247"
   transform="matrix(1.5,0,0,1.5,-6,-6)"><ellipse
>>>>>>>> origin/react-app:backend/static/img/icons/cropped/roommates.svg
     class="st0"
     cx="12"
     cy="17"
     rx="8"
     ry="2"
     id="ellipse9"
     style="fill:url(#SVGID_1_)" /><path
     class="st1"
     d="M 12,5 C 9.8,5 8,6.8 8,9 c 0,1.8 2.6,5.8 3.6,7.4 0.1,0.2 0.5,0.3 0.7,0.1 0.1,0 0.1,-0.1 0.1,-0.1 C 13.4,14.8 16,10.8 16,9 16,6.8 14.2,5 12,5 Z m 0,5 c -0.6,0 -1,-0.4 -1,-1 0,-0.6 0.4,-1 1,-1 0.6,0 1,0.4 1,1 0,0.6 -0.4,1 -1,1 z"
     id="path11" /></g>
</svg>
