<?xml version="1.0" encoding="UTF-8" standalone="no"?>
<svg
   viewBox="0 0 24 24"
   version="1.1"
   id="svg8"
   sodipodi:docname="setting.svg"
   inkscape:version="1.2.2 (b0a8486541, 2022-12-01)"
   xmlns:inkscape="http://www.inkscape.org/namespaces/inkscape"
   xmlns:sodipodi="http://sodipodi.sourceforge.net/DTD/sodipodi-0.dtd"
   xmlns="http://www.w3.org/2000/svg"
   xmlns:svg="http://www.w3.org/2000/svg">
  <defs
     id="defs12" />
  <sodipodi:namedview
     id="namedview10"
     pagecolor="#ffffff"
     bordercolor="#000000"
     borderopacity="0.25"
     inkscape:showpageshadow="2"
     inkscape:pageopacity="0.0"
     inkscape:pagecheckerboard="0"
     inkscape:deskcolor="#d1d1d1"
     showgrid="false"
     inkscape:zoom="17.8125"
     inkscape:cx="0.84210526"
     inkscape:cy="13.445614"
     inkscape:window-width="1920"
     inkscape:window-height="1030"
     inkscape:window-x="0"
     inkscape:window-y="0"
     inkscape:window-maximized="1"
     inkscape:current-layer="svg8" />
  <g
     id="g298"
     transform="matrix(1.9099416,0,0,1.8779342,-10.919299,-10.53521)">
    <path
       d="M 16.81,12 A 4.89,4.89 0 0 0 16.62,10.72 L 17.81,10 16.61,8 15.43,8.68 A 4.78,4.78 0 0 0 13.2,7.36 V 6 H 10.8 V 7.36 A 4.78,4.78 0 0 0 8.57,8.63 L 7.39,8 6.19,10 7.38,10.69 A 5,5 0 0 0 7.19,12 5,5 0 0 0 7.38,13.28 L 6.19,14 l 1.2,2.09 1.18,-0.68 a 4.78,4.78 0 0 0 2.23,1.27 V 18 h 2.4 v -1.36 a 4.78,4.78 0 0 0 2.23,-1.27 l 1.18,0.68 1.2,-2.05 -1.19,-0.68 A 5,5 0 0 0 16.81,12 Z M 12,14.4 A 2.41,2.41 0 1 1 14.41,12 2.39,2.39 0 0 1 12,14.4 Z"
       style="fill:#dc3545"
       id="path2" />
    <path
       d="M 17.19,12 C 17.09,10.81 16.89,11 18,10.36 A 0.38,0.38 0 0 0 18.13,9.85 L 16.93,7.76 A 0.38,0.38 0 0 0 16.42,7.63 C 15.27,8.29 15.61,8.11 14.6,7.53 13.59,6.95 13.6,7.28 13.6,5.99 A 0.38,0.38 0 0 0 13.22,5.61 H 10.8 a 0.38,0.38 0 0 0 -0.38,0.38 c 0,1.35 0,0.94 -1,1.54 -1,0.6 -0.72,0.73 -1.82,0.1 A 0.38,0.38 0 0 0 7.09,7.76 L 5.87,9.85 A 0.38,0.38 0 0 0 6,10.36 c 1.18,0.68 0.81,0.45 0.81,1.64 0,1.19 0.33,1 -0.81,1.64 a 0.38,0.38 0 0 0 -0.13,0.51 l 1.2,2.09 a 0.38,0.38 0 0 0 0.51,0.13 c 1.15,-0.66 0.81,-0.48 1.82,0.1 1.01,0.58 1,0.25 1,1.54 a 0.38,0.38 0 0 0 0.38,0.38 h 2.4 a 0.38,0.38 0 0 0 0.38,-0.38 c 0,-1.35 0,-0.94 1,-1.54 1,-0.6 0.72,-0.73 1.82,-0.1 a 0.38,0.38 0 0 0 0.51,-0.13 l 1.2,-2.09 A 0.38,0.38 0 0 0 17.96,13.64 C 16.85,13 17.05,13.19 17.15,12 c 0,-0.48 -0.71,-0.48 -0.75,0 l -0.18,1.18 a 0.38,0.38 0 0 0 0.17,0.42 c 0.26,0.15 0.91,0.37 1.07,0.62 -0.3,-0.48 -0.3,0 -0.62,0.6 -0.32,0.6 -0.77,0.82 -0.21,0.83 -0.28,0 -0.8,-0.46 -1.05,-0.61 a 0.41,0.41 0 0 0 -0.46,0.06 4.45,4.45 0 0 1 -2.06,1.18 0.39,0.39 0 0 0 -0.27,0.36 3.9,3.9 0 0 1 0,1.23 c 0.27,-0.49 -0.2,-0.23 -0.83,-0.23 -0.63,0 -1.1,-0.26 -0.83,0.23 a 3.9,3.9 0 0 1 0,-1.23 A 0.39,0.39 0 0 0 10.86,16.28 4.45,4.45 0 0 1 8.84,15.1 0.41,0.41 0 0 0 8.38,15 c -0.25,0.15 -0.77,0.6 -1.05,0.61 0.56,0 0.1,-0.29 -0.21,-0.83 C 6.81,14.24 6.8,13.7 6.5,14.18 6.66,13.93 7.31,13.71 7.57,13.56 a 0.4,0.4 0 0 0 0.18,-0.42 3.81,3.81 0 0 1 0,-2.36 0.4,0.4 0 0 0 -0.18,-0.42 C 7.31,10.21 6.66,9.99 6.5,9.74 c 0.3,0.48 0.3,0 0.62,-0.6 0.32,-0.6 0.77,-0.82 0.21,-0.83 0.28,0 0.8,0.46 1.05,0.61 a 0.41,0.41 0 0 0 0.46,-0.06 4.45,4.45 0 0 1 2.06,-1.14 0.39,0.39 0 0 0 0.27,-0.36 3.9,3.9 0 0 1 0,-1.23 c -0.27,0.49 0.2,0.23 0.83,0.23 0.63,0 1.1,0.26 0.83,-0.23 a 3.9,3.9 0 0 1 0,1.23 0.39,0.39 0 0 0 0.27,0.36 4.45,4.45 0 0 1 2.06,1.18 0.41,0.41 0 0 0 0.46,0.06 c 0.25,-0.15 0.77,-0.61 1.05,-0.61 -0.56,0 -0.1,0.29 0.21,0.83 0.31,0.54 0.32,1.08 0.62,0.6 -0.16,0.25 -0.81,0.47 -1.07,0.62 a 0.38,0.38 0 0 0 -0.17,0.42 L 16.44,12 c 0.04,0.48 0.79,0.48 0.75,0 z"
       style="fill:#dc3545"
       id="path4" />
    <path
       d="m 12,14 c -2.6,-0.11 -2.62,-4 0,-4 2.62,0 2.6,3.92 0,4.06 -0.48,0 -0.48,0.78 0,0.75 A 2.78,2.78 0 1 0 9.23,11.9 2.83,2.83 0 0 0 12,14.78 c 0.48,0.03 0.48,-0.72 0,-0.78 z"
       style="fill:#dc3545"
       id="path6" />
  </g>
</svg>
