<?xml version="1.0" encoding="UTF-8" standalone="no"?>
<svg
   viewBox="0 0 24 24"
   version="1.1"
   id="svg12"
   sodipodi:docname="trash.svg"
   inkscape:version="1.2.2 (b0a8486541, 2022-12-01)"
   xmlns:inkscape="http://www.inkscape.org/namespaces/inkscape"
   xmlns:sodipodi="http://sodipodi.sourceforge.net/DTD/sodipodi-0.dtd"
   xmlns="http://www.w3.org/2000/svg"
   xmlns:svg="http://www.w3.org/2000/svg">
  <defs
     id="defs16" />
  <sodipodi:namedview
     id="namedview14"
     pagecolor="#ffffff"
     bordercolor="#000000"
     borderopacity="0.25"
     inkscape:showpageshadow="2"
     inkscape:pageopacity="0.0"
     inkscape:pagecheckerboard="0"
     inkscape:deskcolor="#d1d1d1"
     showgrid="false"
     inkscape:zoom="35.625"
     inkscape:cx="11.985965"
     inkscape:cy="12"
     inkscape:window-width="1920"
     inkscape:window-height="1030"
     inkscape:window-x="0"
     inkscape:window-y="0"
     inkscape:window-maximized="1"
     inkscape:current-layer="svg12" />
  <g
     id="g196"
     transform="matrix(2.2304832,0,0,2.2304832,-14.765798,-14.765799)">
    <path
       d="M 15,8.63 H 9 A 0.38,0.38 0 0 0 8.62,9 v 8 A 0.39,0.39 0 0 0 9,17.38 h 6 A 0.38,0.38 0 0 0 15.37,17 V 9 a 0.38,0.38 0 0 0 -0.75,0 v 8 L 15,16.63 H 9 L 9.37,17 V 9 L 9,9.38 h 6 a 0.38,0.38 0 0 0 0,-0.75 z"
       style="fill:#dc3545"
       id="path2" />
    <path
       d="m 8,8.38 h 8 A 0.38,0.38 0 0 0 16,7.63 H 8 a 0.38,0.38 0 0 0 0,0.75 z"
       style="fill:#dc3545"
       id="path4" />
    <path
       d="M 10.37,8 V 7 L 10,7.38 h 4 L 13.62,7 v 1 a 0.38,0.38 0 0 0 0.75,0 V 7 A 0.38,0.38 0 0 0 14,6.62 H 10 A 0.38,0.38 0 0 0 9.62,7 v 1 a 0.38,0.38 0 0 0 0.75,0 z"
       style="fill:#dc3545"
       id="path6" />
    <path
       d="m 11.37,15 v -4 a 0.38,0.38 0 0 0 -0.75,0 v 4 a 0.38,0.38 0 0 0 0.75,0 z"
       style="fill:#dc3545"
       id="path8" />
    <path
       d="m 13.37,15 v -4 a 0.38,0.38 0 0 0 -0.75,0 v 4 a 0.38,0.38 0 0 0 0.75,0 z"
       style="fill:#dc3545"
       id="path10" />
  </g>
</svg>
