<?xml version="1.0" encoding="utf-8"?>
<!-- Generator: Adobe Illustrator 25.0.0, SVG Export Plug-In . SVG Version: 6.00 Build 0)  -->
<svg version="1.1" id="Calque_1" xmlns="http://www.w3.org/2000/svg" xmlns:xlink="http://www.w3.org/1999/xlink" x="0px" y="0px"
	 viewBox="0 0 198.4 198.4" style="enable-background:new 0 0 198.4 198.4;" xml:space="preserve">
<style type="text/css">
	.st0{fill:#B6B7B7;}
	.st1{fill:#232323;}
	.st2{fill:none;stroke:#E3E3E3;stroke-miterlimit:10;}
	.st3{fill:url(#SVGID_1_);}
	.st4{fill:url(#SVGID_2_);}
	.st5{fill:url(#SVGID_3_);}
	.st6{fill:none;}
</style>
<g id="Calque_6">
	<circle class="st0" cx="96" cy="99.8" r="92.6"/>
</g>
<g id="Bleu">
	<path class="st1" d="M187.1,58.2c1.6,3.4,3.2,7.3,4.6,11.6c2.6,8.2,3.8,15.6,4.3,21.7c-1.9,0.3-5.4,0.6-9.1-0.8
		c-8.5-3.3-10.8-12.4-11-13.4c-0.2-1.4-0.9-6.7,2.4-12.1C181.4,60.5,185.7,58.7,187.1,58.2z"/>
	<path class="st1" d="M154.2,19.6c2.3,1.6,5.4,3.8,8.7,6.6c0.3,0.3,2.1,1.8,4,3.7c4.8,4.7,8.8,9.7,11.9,14c-1,0.8-6.7,5.5-14,4.2
		c-2.6-0.5-5.4-1.7-8.2-4.2c-1.5-1.4-5.9-5.1-6.6-11.6C149.4,25.4,153.4,20.5,154.2,19.6z"/>
	<path class="st1" d="M141,12c-4.3-2.1-10.5-4.7-18.2-6.6c-6-1.5-21.7-4.9-41.5-1.1C62.8,7.8,50,15.7,44.7,19.3
		c-4,2.7-11.3,8.1-18.8,16.8C9.4,55.2,4.9,75.8,3.8,81.7C2.6,88.1-2.1,116,12.9,145c7.8,15,17.9,24.5,23.1,29
		c3,2.6,12,9.9,24.9,15.4c27.4,11.6,53.7,6.9,64.5,4.2c5.7-1.6,12.3-4.1,19.2-7.8c17.4-9.3,28.3-22,34.4-30.4
		c-1.8-1-4.7-2.3-8.4-2.7c-4.7-0.4-8.5,1-10.5,1.9c-10.6,4.8-25.4,26.4-65.6,25.4c0,0-1.9-35,26.4-57.2s23.1-45,18.3-59.1l-16.1,6.4
		c0,0,13.8,49.2-42.8,42.1c0,0-20.9-2.9-32.5,14.8l-17.7-16.7l65.2-69.2c0.6-0.6,1-1.3,1.2-2.1c0.9-3,2.8-10.9-0.1-19
		c6.9,0.8,13.8,1.5,20.7,2.3c3.7,0.4,5.1,0.4,6.9,0.1C132.1,21.3,137.7,15.9,141,12z"/>
	<path class="st1" d="M196.1,107.6c-0.3,4.6-1.1,10.1-2.6,16.2c-1.8,7.2-4.2,13.1-6.5,17.8c-1.4-0.6-6.3-2.9-9-8.5
		c-3.9-8,0.1-15.8,0.6-16.6c0.5-1.5,1.2-3.2,2.6-4.7C186.3,105.9,195.3,107.4,196.1,107.6z"/>
	<path class="st2" d="M99.6,57.7"/>
	<ellipse transform="matrix(0.1602 -0.9871 0.9871 0.1602 18.3991 155.6619)" class="st1" cx="100.7" cy="67" rx="9.1" ry="9.2"/>
</g>
<g id="flou_x5F_crete">
	
		<linearGradient id="SVGID_1_" gradientUnits="userSpaceOnUse" x1="120.4" y1="831.809" x2="196.2" y2="831.809" gradientTransform="matrix(1 0 0 -1 0 915.5589)">
		<stop  offset="0.5043" style="stop-color:#E0E0DF"/>
		<stop  offset="1" style="stop-color:#B6B7B7"/>
	</linearGradient>
	<path class="st3" d="M120.4,22.4c2.7,0.8,43.4,13.6,55.5,56c12.2,42.6-15.9,75.1-17.7,77.1c1.6-1,4.1-2.2,7.3-2.7
		c6.5-1.1,11.7,1.4,13.5,2.4c2.7-4.5,5.3-9.1,8-13.6c-0.9-0.4-2.1-1-3.3-1.9c-0.7-0.5-2.1-1.5-3.5-3.2c-2.1-2.6-2.7-5.4-3-6.8
		c-0.2-0.8-0.9-4.5,0.3-9.1c0.5-2.1,1.9-7.3,6.6-10.5c2.5-1.7,5.1-2.2,6.3-2.4c2.4-0.5,4.5-0.4,5.8-0.2c0-5.4,0-10.7,0-16
		c-1.2,0.3-3.1,0.5-5.4,0.2c-1.1-0.1-4.2-0.7-7.3-3c-2.5-1.9-3.9-4-4.5-5c-0.3-0.4-1.5-2.5-2.3-5.4c-0.4-1.5-0.5-2.7-0.6-2.9
		c-0.1-0.9-0.3-2.7,0.2-4.9c0.7-3.3,2.3-5.6,3-6.5c0.3-0.4,1.1-1.4,2.3-2.4c0.3-0.3,1.3-1.1,2.7-1.9c1.1-0.6,2.1-1.1,2.9-1.5
		c-2.8-4.8-5.5-9.5-8.3-14.3c-1.4,1.2-3.5,2.7-6.4,3.6c-1.5,0.5-5,1.5-9.1,0.3c-2.3-0.7-4-1.8-4.7-2.3c0,0-1.5-1-2.7-2.3
		c-5-5-5.7-11.8-5.7-11.8c-0.3-6.3,3.2-10.7,4.1-11.8c-4.4-2.5-8.8-5-13.2-7.6c-2,2.6-4.1,4.4-5.7,5.6c-1.4,1-3.9,2.8-7.7,3.9
		C124.8,22.4,122.2,22.5,120.4,22.4z"/>
	
		<linearGradient id="SVGID_2_" gradientUnits="userSpaceOnUse" x1="220" y1="704.2589" x2="220" y2="704.2589" gradientTransform="matrix(1 0 0 -1 0 915.5589)">
		<stop  offset="0.5043" style="stop-color:#E0E0DF"/>
		<stop  offset="1" style="stop-color:#B6B7B7"/>
	</linearGradient>
	<path class="st4" d="M220,211.3"/>
</g>
<g id="Calque_10">
	
		<linearGradient id="SVGID_3_" gradientUnits="userSpaceOnUse" x1="39.1516" y1="796.3375" x2="138.8293" y2="853.8864" gradientTransform="matrix(1 0 0 -1 0 915.5589)">
		<stop  offset="0.5043" style="stop-color:#E0E0DF"/>
		<stop  offset="1" style="stop-color:#B6B7B7"/>
	</linearGradient>
	<path class="st5" d="M38.1,117.4c2.1-0.9,5.8-2.6,10-5.3c20.4-12.7,26.3-38.9,38.6-40.4c3.9-0.5,6.2,1.2,6.2,1.2
		c1.4,0.7,1.9,1.4,3.8,2.2c1,0.4,2.3,0.9,4,0.9c2.2,0,3.9-0.8,4.5-1.2c1.3-0.7,2.1-1.6,2.6-2.2c0.4-0.5,0.8-1.1,1.2-2
		c0.2-0.5,0.6-1.4,0.7-2.5c0.2-1.3,0-2.3-0.2-3.2c-0.6-3.1-1.9-4.3-3.3-7.9c-0.8-2.2-1.2-3.2-1.1-4c0.7-6.1,13.5-9,16.5-6.5
		c1.7,0.4,3.6,1,5.5,2.1c7.9,4.2,11.1,11.9,12.2,14.9c-5.4,2.1-10.7,4.3-16.1,6.4c1.1,2.7,2.3,6.5,2.4,11
		c0.4,11.8-6.2,20.2-8.4,22.8c-2,2-4.7,4.1-8,5.9c-11.6,6.1-23.5,3.6-27.5,2.5c-3.2-0.5-7.8-0.7-13.1,0.6
		c-11.7,2.8-18.4,11.1-20.6,14C44.7,123.7,41.4,120.6,38.1,117.4z"/>
</g>
<g id="Calque_8">
	<path id="SVGID_x5F_4_x5F_" class="st6" d="M197.7,100.1c0,54.7-44.4,99.1-99.1,99.1s-99.1-44.4-99.1-99.1S43.9,1,98.6,1
		S197.7,45.3,197.7,100.1z"/>
	<text transform="matrix(1 0 0 1 -403.6667 -401.6668)" style="fill:#010101; font-family:'ArialMT'; font-size:12px;"> </text>
	<text transform="matrix(1 0 0 1 -403.6667 -401.6668)" style="fill:#010101; font-family:'ArialMT'; font-size:12px;"> </text>
</g>
</svg>
