<svg xmlns="http://www.w3.org/2000/svg" viewBox="0 0 24 24"><polygon points="9 18.39 12 16.53 15 18.47 15 8.47 9 8.47 9 18.39" style="fill:#dc3545"/><path d="M9.19,18.71l1.5-.93a8.42,8.42,0,0,0,.9-.56c.13-.1.73-.3.41-.34s.33.3.41.36c.28.22.6.39.9.59l1.5,1a.38.38,0,0,0,.56-.33v-10A.38.38,0,0,0,15,8.1H9a.38.38,0,0,0-.38.37v9.92a.38.38,0,0,0,.75,0V11.52c0-1,0-2,0-3,0,.54-.57.14.36.3a14.34,14.34,0,0,0,2.27,0h2.13a3,3,0,0,0,.67,0c.38-.12-.14,0-.18-.33a26.9,26.9,0,0,1,0,2.84v7.11l.57-.32-3-1.94a.37.37,0,0,0-.38,0l-3,1.85C8.4,18.32,8.78,19,9.19,18.71Z" style="fill:#dc3545"/><rect x="9" y="6.1" width="6" height="1.23" style="fill:#dc3545"/><path d="M15,5.73H9a.38.38,0,0,0-.38.37V7.33A.39.39,0,0,0,9,7.71h6a.38.38,0,0,0,.37-.38V6.1a.38.38,0,0,0-.75,0V7.33L15,7H9l.37.37V6.1L9,6.48h6A.38.38,0,0,0,15,5.73Z" style="fill:#dc3545"/></svg>